/* XPM */
static char *result[] = {
/* columns rows colors chars-per-pixel */
"60 60 219 2 ",
"   c #08131D",
".  c #191C1B",
"X  c #081929",
"o  c #141E26",
"O  c #1E1F21",
"+  c #031E35",
"@  c #031F38",
"#  c #152125",
"$  c #18242A",
"%  c #0C2338",
"&  c #15293C",
"*  c #1D313B",
"=  c #0B212E",
"-  c #222426",
";  c #2A2C2B",
":  c #33332F",
">  c #282D31",
",  c #2C3234",
"<  c #24333B",
"1  c #283438",
"2  c #3B3B3B",
"3  c #363636",
"4  c #302F33",
"5  c #413F3D",
"6  c #43423E",
"7  c #0E2B40",
"8  c #032B4A",
"9  c #1A2F45",
"0  c #162F42",
"q  c #1B324B",
"w  c #173347",
"e  c #0B3655",
"r  c #1C3A52",
"t  c #253A4C",
"y  c #2D3D49",
"u  c #283846",
"i  c #253B53",
"p  c #2C3748",
"a  c #12405D",
"s  c #2E444E",
"d  c #31444C",
"f  c #3B4548",
"g  c #2B4355",
"h  c #25455B",
"j  c #2C4C5E",
"k  c #294556",
"l  c #334B5C",
"z  c #374A55",
"x  c #3C535D",
"c  c #154464",
"v  c #2B4C62",
"b  c #254A66",
"n  c #32556C",
"m  c #3D596D",
"M  c #3C5663",
"N  c #2F5975",
"B  c #3A5971",
"V  c #27536F",
"C  c #3A627D",
"Z  c #454442",
"A  c #4E4C4C",
"S  c #494948",
"D  c #534D4E",
"F  c #53524E",
"G  c #464D55",
"H  c #4C5252",
"J  c #42535C",
"K  c #49545B",
"L  c #525352",
"P  c #5A5453",
"I  c #5B5B5B",
"U  c #595958",
"Y  c #4D504D",
"T  c #615B5B",
"R  c #5F615F",
"E  c #4A5C64",
"W  c #4A5D6A",
"Q  c #455668",
"!  c #525D63",
"~  c #595E68",
"^  c #4C5B71",
"/  c #434B60",
"(  c #4B626B",
")  c #46626E",
"_  c #53636B",
"`  c #5C6467",
"'  c #446274",
"]  c #49667B",
"[  c #5B6C75",
"{  c #55637A",
"}  c #556B7A",
"|  c #586975",
" . c #646A6D",
".. c #666461",
"X. c #666E74",
"o. c #61727D",
"O. c #6C747B",
"+. c #61787E",
"@. c #78787A",
"#. c #736D6D",
"$. c #807D79",
"%. c #496B84",
"&. c #526E82",
"*. c #506D88",
"=. c #53738A",
"-. c #5A768A",
";. c #5D7A8B",
":. c #5E7483",
">. c #527A94",
",. c #587A92",
"<. c #4E7491",
"1. c #6A7A82",
"2. c #637C8D",
"3. c #6A7D8C",
"4. c #647683",
"5. c #717D84",
"6. c #797F8A",
"7. c #647D95",
"8. c #847D83",
"9. c #58839B",
"0. c #6E828C",
"q. c #74838C",
"w. c #7B8387",
"e. c #6A8499",
"r. c #768A96",
"t. c #7E929B",
"y. c #5788A8",
"u. c #678BA5",
"i. c #7A97AC",
"p. c #6A96B0",
"a. c #6E8CA4",
"s. c #75A7C6",
"d. c #89878A",
"f. c #958E8D",
"g. c #848F97",
"h. c #85939A",
"j. c #95999C",
"k. c #9B9C9F",
"l. c #979798",
"z. c #8497A5",
"x. c #8B9EAA",
"c. c #879AA7",
"v. c #979DA1",
"b. c #819CB4",
"n. c #A39FA3",
"m. c #8EA3AE",
"M. c #9BA4AB",
"N. c #97A2A7",
"B. c #87A3B5",
"V. c #95A9B3",
"C. c #9CABB4",
"Z. c #9AADBB",
"A. c #94A8B9",
"S. c #9BB1BD",
"D. c #A5AAAC",
"F. c #ABACAE",
"G. c #A3AEB4",
"H. c #A3B1BA",
"J. c #ABB4BB",
"K. c #ACB6BA",
"L. c #BBB9B6",
"P. c #B3B8BB",
"I. c #BCBCBD",
"U. c #B6B7B8",
"Y. c #9AB4C5",
"T. c #81ACD0",
"R. c #A7B9C5",
"E. c #B3BDC4",
"W. c #B6BFC6",
"Q. c #BCC2C5",
"!. c #B6C3CA",
"~. c #ABC4D5",
"^. c #B2C5D2",
"/. c #B7C9D6",
"(. c #C3C6CA",
"). c #C2C9CB",
"_. c #CBCCCD",
"`. c #C7C5C5",
"'. c #CBCFD2",
"]. c #C4CED6",
"[. c #CDD2D5",
"{. c #CAD4DA",
"}. c #C1D0DA",
"|. c #D1D4D7",
" X c #DBD9D5",
".X c #D2D6DA",
"XX c #D5DBDD",
"oX c #DCDCDC",
"OX c #D7D7D6",
"+X c #D3D0CC",
"@X c #E2DDDC",
"#X c #DEE0DD",
"$X c #E3E3DD",
"%X c #E9E6DD",
"&X c #CBDAE5",
"*X c #D3DEE3",
"=X c #DBDEE1",
"-X c #DDE3E2",
";X c #DBE6E9",
":X c #D9E5E9",
">X c #E4E4E4",
",X c #E8E6E5",
"<X c #E5E9E4",
"1X c #EBEAE4",
"2X c #E3E6EA",
"3X c #E5EBEB",
"4X c #EAECEB",
"5X c #E9E6EA",
"6X c #EDF0EC",
"7X c #F2F2EF",
"8X c #E2ECF4",
"9X c #EAEEF3",
"0X c #EBF1F3",
"qX c #EDF2F9",
"wX c #F2F3F2",
"eX c #FAF8F6",
"rX c #F9F4F4",
"tX c #F0EEE9",
"yX c None",
/* pixels */
"yXyXyXyXyXyXyXyXyXyXyXyXyXyXyXyXyXyXyXyXyXyXyXyXyXyXyXyXyXyXyXyXyXyXyXyXyXyXyXyXyXyXyXyXyXyXyXyXyXyXyXyXyXyXyXyXyXyXyXyX",
"yXyXyXyXyXyXyXyXyXyXyXyXyXyXyXyXyXyXyXyXyXyXyXyXyXyXyXyXyXyXyXyXyXyXyXyXyXyXyXyXyXyXyXyXyXyXyXyXyXyXyXyXyXyXyXyXyXyXyXyX",
"yXyXyXyXyXyXyXyXyXyXyXyXyXyXyXyXyXyXyXyXyXyXyXyXyXyXyXyXyXyXyXyXyXyXyXyXyXyXyXyXyXyXyXyXyXyXyXyXyXyXyXyXyXyXyXyXyXyXyXyX",
"yXyXyXyXyXyXyXyXyXyXyXyXyXyXyXyXyXyXyXyXyXyXyXyXyXyXyXyXyXyXyXyXyXyXyXyXyXyXyXyXyXyXyXyXyXyXyXyXyXyXyXyXyXyXyXyXyXyXyXyX",
"yXyXyXyXyXyXyXyXyXyXyXyXyXyXyXyXyXyXyXyXyXyXyXyXyXyXyXyXyXyXyXyXyXyXyXyXyXyXyXyXyXyXyXyXyXyXyXyXyXyXyXyXyXyXyXyXyXyXyXyX",
"yXyXyXyXyXyXyXyXyXyXyXyXyXyXyXyXyXyXyXyXyXyXyXyXQ i h v k v j ] yXyXyXyXyXyXyXyXyXyXyXyXyXyXyXyXyXyXyXyXyXyXyXyXyXyXyXyX",
"yXyXyXyXyXyXyXyXyXyXyXyXyXyXyXyXyXyXyXyXyXyXu 1.z.C.R.R.Y.x.r.W t r yXyXyXyXyXyXyXyXyXyXyXyXyXyXyXyXyXyXyXyXyXyXyXyXyXyX",
"yXyXyXyXyXyXyXyXyXyXyXyXyXyXyXyXyXyXyXyXyX1.W.*X:X;X:X:X8X;X*X}.x.W j s.yXyXyXyXyXyXyXyXyXyXyXyXyXyXyXyXyXyXyXyXyXyXyXyX",
"yXyXyXyXyXyXyXyXyXyXyXyXyXyXyXyXyXyXyXyX0.^.8X0X6X1X<X3X;X0X0X8X=XV.^ >.yXyXyXyXyXyXyXyXyXyXyXyXyXyXyXyXyXyXyXyXyXyXyXyX",
"yXyXyXyXyXyXyXyXyXyXyXyXyXyXyXyXyXyXyXk V.8X8X#X%X%X<X<X#X3X>X;X9X&Xz.v yXyXyXyXyXyXyXyXyXyXyXyXyXyXyXyXyXyXyXyXyXyXyXyX",
"yXyXyXyXyXyXyXyXyXyXyXyXyXyXyXyXyXyXyX9./.8X6X$X%X%X<X$X,X4X;X3X2X8XW.M u.yXyXyXyXyXyXyXyXyXyXyXyXyXyXyXyXyXyXyXyXyXyXyX",
"yXyXyXyXyXyXyXyXyXyXyXyXyXyXyXyXyXyXj S./.:X3X%X%X1X1X<X>X,X5X>X5XqX&X2.%.yXyXyXyXyXyXyXyXyXyXyXyXyXyXyXyXyXyXyXyXyXyXyX",
"yXyXyXyXyXyXyXyXyXyXyXyXyXyXyXyXyXyX) V.^.&X6X$XtX+XI._.$XoX,X,X>X5X*XA.B u.yXyXyXyXyXyXyXyXyXyXyXyXyXyXyXyXyXyXyXyXyXyX",
"yXyXyXyXyXyXyXyXyXyXyXyXyXyXyXyXyXyXe.A.~.#X%X#X`...3 R U.4X3X4XoXl.` e.B p.yXyXyXyXyXyXyXyXyXyXyXyXyXyXyXyXyXyXyXyXyXyX",
"yXyXyXyXyXyXyXyXyXyXyXyXyXyXyXyXyXn i.Y.!..X7X$X@.: . ; X.=X,XwXL.D o x l 9.yXyXyXyXyXyXyXyXyXyXyXyXyXyXyXyXyXyXyXyXyXyX",
"yXyXyXyXyXyXyXyXyXyXyXyXyXyXyXyXyXj B.Z.K.|.0X+XA : 2 - f (.>X7Xl.2 # 1 s =.yXyXyXyXyXyXyXyXyXyXyXyXyXyXyXyXyXyXyXyXyXyX",
"yXyXyXyXyXyXyXyXyXyXyXyXyXyXyXyXyXg m.V.J.|.4X`.Y A Y , f Q.<X3Xf.6 5 3 z &.yXyXyXyXyXyXyXyXyXyXyXyXyXyXyXyXyXyXyXyXyXyX",
"yXyXyXyXyXyXyXyXyXyXyXyXyXyXyXyXyXl A.C.H.{.eX X..F U 5 S _.6X7Xl.F 6 : E | yXyXyXyXyXyXyXyXyXyXyXyXyXyXyXyXyXyXyXyXyXyX",
"yXyXyXyXyXyXyXyXyXyXyXyXyXyXyXyXyXm Y.Z.J.'.3X<Xl.6 : 6 @.>X$X6XL.I - L j.} yXyXyXyXyXyXyXyXyXyXyXyXyXyXyXyXyXyXyXyXyXyX",
"yXyXyXyXyXyXyXyXyXyXyXyXyXyXyXyXyXC ~.C.H.{.4X,X Xd.R 8.`.$X#X6X$Xk.X.D.J.| yXyXyXyXyXyXyXyXyXyXyXyXyXyXyXyXyXyXyXyXyXyX",
"yXyXyXyXyXyXyXyXyXyXyXyXyXyXyXyXyX&.~.c.R.:X4X4XrX X`. XeX7XtX7X6X-X.X3XI.[ yXyXyXyXyXyXyXyXyXyXyXyXyXyXyXyXyXyXyXyXyXyX",
"yXyXyXyXyXyXyXyXyXyXyXyXyXyXyXyXyX7.~.x.!.3X2X_.L. X@X+XL.I.L.L.U.Q..X_.D.| yXyXyXyXyXyXyXyXyXyXyXyXyXyXyXyXyXyXyXyXyXyX",
"yXyXyXyXyXyXyXyXyXyXyXyXyXyXyXyXB i.Y.V.!.4X;Xk.D 8.f.#.F U I I H U  . .O.! yXyXyXyXyXyXyXyXyXyXyXyXyXyXyXyXyXyXyXyXyXyX",
"yXyXyXyXyXyXyXyXyXyXyXyXyXyXyXyX^ Y.Y.V.[.0X#Xl.3 5 Z 6 Z S D 5 ; $ . o ` ( yXyXyXyXyXyXyXyXyXyXyXyXyXyXyXyXyXyXyXyXyXyX",
"yXyXyXyXyXyXyXyXyXyXyXyXyXyXyXyX-.~.Z.K.=XwX#XU.D 3 2 Z F U T A 2 , $ o O.| yXyXyXyXyXyXyXyXyXyXyXyXyXyXyXyXyXyXyXyXyXyX",
"yXyXyXyXyXyXyXyXyXyXyXyXyXyXyX] B./.C.(.>X>X-X|.T S F L U P T S 5 > > z g.} yXyXyXyXyXyXyXyXyXyXyXyXyXyXyXyXyXyXyXyXyXyX",
"yXyXyXyXyXyXyXyXyXyXyXyXyXyXv a.^.R.G.[.>X,X>X-Xn.F 6 F P T T Z 3 - 1 3.g.:.yXyXyXyXyXyXyXyXyXyXyXyXyXyXyXyXyXyXyXyXyXyX",
"yXyXyXyXyXyXyXyXyXyXyXyXyXyXyXB.R.H.K..X,X5X<X>X Xw.S 6 A D S : O - ~ E.1.;.yXyXyXyXyXyXyXyXyXyXyXyXyXyXyXyXyXyXyXyXyXyX",
"yXyXyXyXyXyXyXyXyXyXyXyXyXyXyX2.r.E.E.|.-X<X<X>X<X[.f.I D A 3 4 4 ~ J.*XW ;.yXyXyXyXyXyXyXyXyXyXyXyXyXyXyXyXyXyXyXyXyXyX",
"yXyXyXyXyXyXyXyXyXyXyXyX@ yXh t { W.P.(.#X-X-X3X-X0X;X(.n.d.#.8.n.'.8XW.Q e.yXyXyXyXyXyXyXyXyXyXyXyXyXyXyXyXyXyXyXyXyXyX",
"yXyXyXyXyXyXyXyXyXyXyXyX8 V 7 l z.D.6.G.)..X3X6X;X;X3X4X5X9X5X5X2XqXoXq.W i.yXyXyXyXyXyXyXyXyXyXyXyXyXyXyXyXyXyXyXyXyXyX",
"yXyXyXyXyXyXyXyXyXyXyXyXyXyX9 z | p K D.-X3X:XQ.:X:X,X5X9X=XF.|.9X9XJ.G t.Y.yXyXyXyXyXyXyXyXyXyXyXyXyXyXyXyXyXyXyXyXyXyX",
"yXyXyXyXyXyXyXyXyXyXyXyXyX0 0 l z # 5.).-X!.j.h.{.0X.X].|.I.d.K.8X{.1.d e.B.yXyXyXyXyXyXyXyXyXyXyXyXyXyXyXyXyXyXyXyXyXyX",
"yXyXyXyXyXyXyXyXyXyXyXyXyXq h ' M z G.Q.!.N.q.q.].-X!.P.U.k.v.Q.{.c.d ( e.0.} yXyXyXyXyXyXyXyXyXyXyXyXyXyXyXyXyXyXyXyXyX",
"yXyXyXyXyXyXyXyXyXyXyXyXyXyXyXyX) q.E.C.m.t.+.q.C.j.v.M.g.5.K.].C.K * 1.m.Q z C yXyXyXyXyX7 @ yXyXyXyXyXyXyXyXyXyXyXyXyX",
"yXyXyXyXyXyXyXyXyXyXyXyXyXyXyXyXm H.E.H.r.z 1 O.! U  ._ x _ K.K.+.s x +.0.s ( +.W x s * = = X X % yXyXyXyXyXyXyXyXyXyXyX",
"yXyXyXyXyXyXyXyXyXyXyXyXyXyXyXyXyXyX[ j k s s _ 5.[.(.O.d  .K.[ ( +.[ s | E R G $ $ $ o X X o   q yXyXyXyXyXyXyXyXyXyXyX",
"yXyXyXyXyXyXyXyXyXyXyXyXyXyXyXyXyXyXyX&.0.} J } M.-XwX'.j.1.[ u Q _ Q 3.h.0.h.O.u K 1.K o o p u * yXyXyXyXyXyXyXyXyXyXyX",
"yXyXyXyXyXyXyXyXyXyXyXyXyXyXyXyXyXyXyXyXyXyXyXX.G. XeXoXl.H 1 # < < s q.z.c.i.3.{ r.yX4.p & G ^ y yXyXyXyXyXyXyXyXyXyXyX",
"yXyXyXyXyXyXyXyXyXyXyXyXyXyXyXyXyXyXyXyXyXyXyXyXn. XrX+X$.yX# 1 s z ^ 4.:.e.,.=.u.yXyXyXv q / @./ yXyXyXyXyXyXyXyXyXyXyX",
"yXyXyXyXyXyXyXyXyXyXyXyXyXyXyXyXyXyXyXyXyXyXyXyXd.=X0X{.j.yXJ ( yXe.a.=.%.*.<.y.yXyXyXyXh r { d.^ *.yXyXyXyXyXyXyXyXyXyX",
"yXyXyXyXyXyXyXyXyXyXyXyXyXyXyXyXyXyXyXyXyXyXyXyXyXR.&X&XS.yXB.yXyXyXyXyXT.T.T.yXyXyXyXyXv j ,.A.&.=.yXyXyXyXyXyXyXyXyXyX",
"yXyXyXyXyXyXyXyXyXyXyXyXyXyXyXyXyXyXyXyXyXyXyXyXyXyXyXyXyXyXyXyXyXyXyXyXyXyXyXyXyXyXyXyXB Q 7.a.Q *.yXyXyXyXyXyXyXyXyXyX",
"yXyXyXyXyXyXyXyXyXyXyXyXyXyXyXyXyXyXyXyXyXyXyXyXyXyXyXyXyXyXyXyXyXyXyXyXyXyXyXyXyXyXyXyXv i { -.b >.yXyXyXyXyXyXyXyXyXyX",
"yXyXyXyXyXyXyXyXyXyXyXyXyXyXyXyXyXyXyXyXyXyXyXyXyXyXyXyXyXyXyXyXyXyXyXyXyXyXyXyXyXyXyXyXq q 4.-.b yXyXyXyXyXyXyXyXyXyXyX",
"yXyXyXyXyXyXyXyXyXyXyXyXyXyXyXyXyXyXyXyXyXyXyXyXyXyXyXyXyXyXyXyXyXyXyXyXyXyXyXyXyXyXyXQ q i u.=.N yXyXyXyXyXyXyXyXyXyXyX",
"yXyXyXyXyXyXyXyXyXyXyXyXyXyXyXyXyXyXyXyXyXyXyXyXyXyXyXyXyXyXyXyXyXyXyXyXyXyXyXyXyXyXyXg y { yXN yXyXyXyXyXyXyXyXyXyXyXyX",
"yXyXyXyXyXyXyXyXyXyXyXyXyXyXyXyXyXyXyXyXyXyXyXyXyXyXyXyXyXyXyXyXyXyXyXyXyXyXyXyXyXyX7.t x 7.%.r yXyXyXyXyXyXyXyXyXyXyXyX",
"yXyXyXyXyXyXyXyXyXyXyXyXyXyXyXyXyXyXyXyXyXyXyXyXyXyXyXyXyXyXyXyXyXyXyXyXyXyXyXyXyXyXQ u x x 0 yXyXyXyXyXyXyXyXyXyXyXyXyX",
"yXyXyXyXyXyXyXyXyXyXyXyXyXyXyXyXyXyXyXyXyXyXyXyXyXyXyXyXyXyXyXyXyXyXyXyXyXyXyXyXyX%.& z d w v yXyXyXyXyXyXyXyXyXyXyXyXyX",
"yXyXyXyXyXyXyXyXyXyXyXyXyXyXyXyXyXyXyXyXyXyXyXyXyXyXyXyXyXyXyXyXyXyXyXyXyXyXyXyX>.h 7 * * k yXyXyXyXyXyXyXyXyXyXyXyXyXyX",
"yXyXyXyXyXyXyXyXyXyXyXyXyXyXyXyXyXyXyXyXyXyXyXyXyXyXyXyXyXyXyXyXyXyXyXyXyXyXyX9.n + 7 w j >.yXyXyXyXyXyXyXyXyXyXyXyXyXyX",
"yXyXyXyXyXyXyXyXyXyXyXyXyXyXyXyXyXyXyXyXyXyXyXyXyXyXyXyXyXyXyXyXyXyXyXyXyXyXyXV % % r ] u.yXyXyXyXyXyXyXyXyXyXyXyXyXyXyX",
"yXyXyXyXyXyXyXyXyXyXyXyXyXyXyXyXyXyXyXyXyXyXyXyXyXyXyXyXyXyXyXyXyXyXyXyXyXyXc e e C p.yXyXyXyXyXyXyXyXyXyXyXyXyXyXyXyXyX",
"yXyXyXyXyXyXyXyXyXyXyXyXyXyXyXyXyXyXyXyXyXyXyXyXyXyXyXyXyXyXyXyXyXyXyXyXyXyXyXy.p.yXyXyXyXyXyXyXyXyXyXyXyXyXyXyXyXyXyXyX",
"yXyXyXyXyXyXyXyXyXyXyXyXyXyXyXyXyXyXyXyXyXyXyXyXyXyXyXyXyXyXyXyXyXyXyXyXyXyXyXyXyXyXyXyXyXyXyXyXyXyXyXyXyXyXyXyXyXyXyXyX",
"yXyXyXyXyXyXyXyXyXyXyXyXyXyXyXyXyXyXyXyXyXyXyXyXyXyXyXyXyXyXyXyXyXyXyXyXyXyXyXyXyXyXyXyXyXyXyXyXyXyXyXyXyXyXyXyXyXyXyXyX",
"yXyXyXyXyXyXyXyXyXyXyXyXyXyXyXyXyXyXyXyXyXyXyXyXyXyXyXyXyXyXyXyXyXyXyXyXyXyXyXyXyXyXyXyXyXyXyXyXyXyXyXyXyXyXyXyXyXyXyXyX",
"yXyXyXyXyXyXyXyXyXyXyXyXyXyXyXyXyXyXyXyXyXyXyXyXyXyXyXyXyXyXyXyXyXyXyXyXyXyXyXyXyXyXyXyXyXyXyXyXyXyXyXyXyXyXyXyXyXyXyXyX",
"yXyXyXyXyXyXyXyXyXyXyXyXyXyXyXyXyXyXyXyXyXyXyXyXyXyXyXyXyXyXyXyXyXyXyXyXyXyXyXyXyXyXyXyXyXyXyXyXyXyXyXyXyXyXyXyXyXyXyXyX"
};
