/* XPM */
static char *_500d32eef6b46beb84ec2cdb525410eaST6sDTSwSK8fRgm[] = {
/* columns rows colors chars-per-pixel */
"50 50 168 2 ",
"   c None",
".  c #46140B",
"X  c #40131A",
"o  c #620000",
"O  c #6A0000",
"+  c #750000",
"@  c #7A0001",
"#  c #7E000A",
"$  c #740B07",
"%  c #6F0615",
"&  c #631A13",
"*  c #791714",
"=  c #601720",
"-  c #51222A",
";  c #6B242A",
":  c #782730",
">  c #71625F",
",  c #7F6A69",
"<  c #850001",
"1  c #8E0600",
"2  c #85000D",
"3  c #8C000D",
"4  c #950001",
"5  c #9E0001",
"6  c #940807",
"7  c #9C0800",
"8  c #93020C",
"9  c #9F000F",
"0  c #960D0D",
"q  c #9E0F09",
"w  c #830111",
"e  c #98091D",
"r  c #961011",
"t  c #92141D",
"y  c #931914",
"u  c #A50001",
"i  c #A90202",
"p  c #A50C07",
"a  c #AD0901",
"s  c #A70908",
"d  c #B20101",
"f  c #BB0101",
"g  c #B10E07",
"h  c #BD000A",
"j  c #B40D0A",
"k  c #BD0A08",
"l  c #AB100C",
"z  c #A10013",
"x  c #AA071C",
"c  c #B30013",
"v  c #BA0111",
"b  c #B60419",
"n  c #BB001B",
"m  c #A8151D",
"M  c #A9181D",
"N  c #B01213",
"B  c #8C2016",
"V  c #99271D",
"C  c #8F1730",
"Z  c #BF0022",
"A  c #A81D22",
"S  c #80202C",
"D  c #962922",
"F  c #AB2B2A",
"G  c #BC3228",
"H  c #BC2632",
"J  c #C30202",
"K  c #CE0302",
"L  c #C00A00",
"P  c #C5030B",
"I  c #CC0209",
"U  c #CF080F",
"Y  c #CC0E02",
"T  c #D40200",
"R  c #DC0101",
"E  c #D40F05",
"W  c #D10409",
"Q  c #DB020A",
"!  c #D3080C",
"~  c #DC0A0D",
"^  c #C7160E",
"/  c #CC1A0E",
"(  c #D0100F",
")  c #D8110C",
"_  c #C30714",
"`  c #D80010",
"'  c #D00D13",
"]  c #D5001C",
"[  c #DD031A",
"{  c #C31A1D",
"}  c #DC1613",
"|  c #E10000",
" . c #EC0102",
".. c #E50906",
"X. c #E5010D",
"o. c #ED010A",
"O. c #E60B0F",
"+. c #EF090B",
"@. c #F40101",
"#. c #FD0204",
"$. c #F20D07",
"%. c #FC0D05",
"&. c #F3030C",
"*. c #FC030B",
"=. c #FF0C0E",
"-. c #E51106",
";. c #E4100C",
":. c #E30212",
">. c #EB0317",
",. c #E10811",
"<. c #EC0913",
"1. c #E5061A",
"2. c #FA0011",
"3. c #FF0917",
"4. c #F1001A",
"5. c #FD001F",
"6. c #FD0C1D",
"7. c #EA1413",
"8. c #E31D1C",
"9. c #E31519",
"0. c #DD0922",
"q. c #C91A21",
"w. c #C41522",
"e. c #D71226",
"r. c #EE0C20",
"t. c #FE0223",
"y. c #F20F22",
"u. c #F80F2F",
"i. c #FF0233",
"p. c #DC3636",
"a. c #EE2329",
"s. c #E82E2F",
"d. c #EF2135",
"f. c #FF2434",
"g. c #FF2B39",
"h. c #CB413E",
"j. c #9D3943",
"k. c #FF3542",
"l. c #FF3D45",
"z. c #FF3152",
"x. c #BE4A5D",
"c. c #AC5C5D",
"v. c #986756",
"b. c #966C56",
"n. c #A16B5F",
"m. c #AD645E",
"M. c #806C6B",
"N. c #BD6E74",
"B. c #BA7474",
"V. c #CE554D",
"C. c #FD4443",
"Z. c #FF414D",
"A. c #FF5752",
"S. c #FF515D",
"D. c #F45955",
"F. c #EE4F6B",
"G. c #C46E71",
"H. c #B48B91",
"J. c #D68782",
"K. c #D6878A",
"L. c #C59483",
"P. c #E9888F",
"I. c #E2988D",
"U. c #ED979A",
"Y. c #C7B3AA",
"T. c #D9B0AE",
"R. c #F5A4A1",
"E. c #E2B0B3",
/* pixels */
"                                                                                                    ",
"                                                                                                    ",
"                                                                                                    ",
"                                                                                                    ",
"                                                                                                    ",
"                                                                                                    ",
"                                                                                                    ",
"                                                                                                    ",
"                                                                                                    ",
"                                                                                                    ",
"                                                                                                    ",
"                                                                                                    ",
"                                                                                                    ",
"                                                                                                    ",
"                                      :                                                             ",
"                                  c.j.x.C                   F.                                      ",
"                                h.p.g.2.t.n             H z.4.i.h V.                                ",
"                                G s.6.*.6.0.e       B.A S.[ t.t.d.0 L.                              ",
"                              M.g 8. .#. .&.u.Z P.J.F l.Q <.6.&.[ m m.                              ",
"                              M.I K -. .%.*.&.1._ { C.;.=.@.+.,.] z G.                              ",
"                              > I J E %.@.#. .<.o.f...T @.*.| T Z 2 N.                              ",
"                                9 w.f R  .| 7.R 6.*.@.$.R E ~ f w S E.                              ",
"                                  w v ( L Y 7.X.X.R 3.#.E g u h ; T.                                ",
"                                    # N g 8.O.1.4.>.&.&.J p 3 3 Y.                                  ",
"                                      0 a.g.:.:.1.X.X.X.Q _ < R.                                    ",
"                                      q Z.&.R y.:.>.>.o.o.Q A I.                                    ",
"                                    V A.+.@.&.X.' ! | #.*.Q u 6 K.                                  ",
"                                  D C.R R @.&.I j k | @.@.R 9.1.e U.                                ",
"                                B D.R  .@.R ^ p 4 u K ..R |  . .b t                                 ",
"                                q.k T @.#.) 1 y M u 4 a J +.o.R e.@ n.                              ",
"                                d P } T K h 4 t w t + 7 f K I ' P r v.                              ",
"                                h J f / i d c 3     @ 4 i u j d d < b.                              ",
"                                < l u b x   =         &   5 d d - X                                 ",
"                                  @ A 8   %             *   4 i X H.                                ",
"                                    o                       $ O                                     ",
"                                                            .                                       ",
"                                                                                                    ",
"                                                                                                    ",
"                                                                                                    ",
"                                                                                                    ",
"                                                                                                    ",
"                                                                                                    ",
"                                                                                                    ",
"                                                                                                    ",
"                                                                                                    ",
"                                                                                                    ",
"                                                                                                    ",
"                                                                                                    ",
"                                                                                                    ",
"                                                                                                    "
};
