/* XPM */
static char *_d87c8f8b53349a0fa2d7fc3b8dfff48l1dLnfyj333BvWpF[] = {
/* columns rows colors chars-per-pixel */
"50 50 120 2 ",
"   c #010100",
".  c #080701",
"X  c #070800",
"o  c #0C0B02",
"O  c #110E03",
"+  c #0F1101",
"@  c #141204",
"#  c #1A1506",
"$  c #161801",
"%  c #1D1A04",
"&  c #171308",
"*  c #1C1608",
"=  c #1D1909",
"-  c #211D05",
";  c #201709",
":  c #231C09",
">  c #291E0B",
",  c #1E2102",
"<  c #242204",
"1  c #2A2405",
"2  c #2D2A06",
"3  c #25230A",
"4  c #27230B",
"5  c #262108",
"6  c #272709",
"7  c #26240A",
"8  c #24220C",
"9  c #25220A",
"0  c #2A2109",
"q  c #29200B",
"w  c #28230A",
"e  c #2B230B",
"r  c #2A2409",
"t  c #2F2608",
"y  c #2C250B",
"u  c #2E260A",
"i  c #2C200D",
"p  c #2C210F",
"a  c #2C220E",
"s  c #28240C",
"d  c #2A250D",
"f  c #28270C",
"g  c #2C250C",
"h  c #2D240D",
"j  c #2E250C",
"k  c #2D270C",
"l  c #2E250F",
"z  c #2A230A",
"x  c #2B2909",
"c  c #2D2909",
"v  c #2F280A",
"b  c #2E290B",
"n  c #2D290E",
"m  c #2E2A0E",
"M  c #2D290B",
"N  c #312A05",
"B  c #30250E",
"V  c #33270F",
"C  c #31260D",
"Z  c #322909",
"A  c #302B08",
"S  c #302A09",
"D  c #302B09",
"F  c #312A0A",
"G  c #332B0A",
"H  c #322D0B",
"J  c #362D0B",
"K  c #352F0B",
"L  c #372F0B",
"P  c #332A0D",
"I  c #32290F",
"U  c #312C0D",
"Y  c #322E0F",
"T  c #372E0C",
"R  c #332C0C",
"E  c #3A2C0B",
"W  c #382E0B",
"Q  c #382E0C",
"!  c #392E0D",
"~  c #382F0D",
"^  c #382C0E",
"/  c #3D2F0F",
"(  c #343006",
")  c #383207",
"_  c #36310C",
"`  c #37300D",
"'  c #37320E",
"]  c #36310C",
"[  c #38320B",
"{  c #38310C",
"}  c #3B330D",
"|  c #3D300D",
" . c #3C370D",
".. c #3A320B",
"X. c #322E11",
"o. c #362C10",
"O. c #352D10",
"+. c #392E11",
"@. c #363213",
"#. c #393310",
"$. c #3A3411",
"%. c #3C3114",
"&. c #3D3115",
"*. c #3A3714",
"=. c #3C3415",
"-. c #3B3311",
";. c #3F3A16",
":. c #3E3913",
">. c #44370F",
",. c #413816",
"<. c #443D17",
"1. c #473B15",
"2. c #493A17",
"3. c #423B18",
"4. c #4F4717",
"5. c #4A431A",
"6. c #4F471A",
"7. c #534D1D",
"8. c #554D1E",
"9. c #5B531D",
/* pixels */
"                                                                                                    ",
"                                                                                                    ",
"                                                                                                    ",
"                                                                                                    ",
"                                                  o +                     .                         ",
"                                              o o o o     o o                                       ",
"                                    . . o o o @ & & & O o o o         X           .                 ",
"                              o @ & & & # & : 5 n X.d , & @ & O o o       o       .                 ",
"                X o o   .   o @ : : > i : : ! 4.6.;.*.n = = & & + o o   .     . o                   ",
"                X     X o o & * : ! V P { k -.9.7.;.<.d : = & o @ @ o o   o   .     o               ",
"          o     .   o o @ > : y K >./ W T o.,.8.5.=.d = = # & @ $ & @ o o . . .   X   .             ",
"                  . o & 5 { [ A W / W C k l ,.+.X.d : * # & & & & @ @ & O .   .                     ",
"              o o o @ % S  .} W A 1 t : ; i i B > ; ; * * @ O O = % & = & o o o o o   o X   o       ",
"              o o O = 5 [ W ! W > - ; ; > C > ; ; & O ; = * O O % < 7 7 = & +             o @       ",
"              o O # w H S H S y > # O # ; > ; * O O O & @ * ; ; % 7 m @.8 = $ @ o   X . o o o       ",
"            o o @ = b _ b K b y > # O O ; > > ; & . o o o @ - w , x 6 3 8 = = $ @ o   o   o         ",
"              @ % < 1 H A K 1 w > ; @ # & & B > . .   O & @ % - < 7 7 , = = < , & o . . .           ",
"              + % b b y 1 : = - ; > : O O O ; * O .   . @ @ % - 7 1 = < & % < 7 + o   . o           ",
"              X @ - r 5 - : # - ; # # . O O O O . O O o o o o # % % # % % % = 7 = o o   .           ",
"              + @ : y P y # O @ # @ O . . o O o . O # O # % + @ + @ o & 8 x Y *.7 & o o .           ",
"          X o % < J } ! y # O o O o O .   o . . o X o o % 3 @ o   o @ & 8 @.*.*.s & O . . .         ",
"          , , 6 2 K K : % # O o . .   . . O O O .   o o o o o X o O # 5 @.;.;.@.= & o . .           ",
"        o 2 2 H } S < - # O o o .       . O O . o o   o o   o o & 8 : 5 X.n 8 8 = & o X             ",
"        + < 2 _ ! 1 : % @ @ O o . .       . . O @ + X o @ . o o & f P d 8 8 & O & o                 ",
"      X $ , < 2 - S 1 @ # = @ O o o     X o @ % @ X o   o X   o o @ = 8 & o O o o . .               ",
"      + % , , < - 1 - - : # @ O o       o o $ < @ +           X o   X + o o o & & o . .             ",
"      X $ , , % % % @ - - % @ @ o       + o o N 2 o                   o o o O O & & o               ",
"      o + $ @ % % @ @ @ # # @ o O o   X @ o % ) ( o     X X           o o o O O O O o               ",
"      o @ @ + $ = O O o o o O o o o X   . @ N ) - % @ + o               . . o & O . .               ",
"      X + X + o o O O O   .   . o o o o . % W 1 @ @ % < $     @ o       . . o = O                   ",
"      o + o X o o O @ o         O @ o O O - 1 < # % < < , @ @ , - # & o . . o O o                   ",
"        X o X X O o O     o o   o o o O % % % % @ @ < < 1 2 % @ @ N w = & O & O o .                 ",
"        o X   o X   o .   O . o O o O @ % & @ = % o @ < 1 ( N 1 # - > ; q = O O o                   ",
"        o o         .   . o O O @ # - - : # $ % - o @ < 1 ) N 1 % @ # : o.8 * O o o                 ",
"                    .     O O @ % - w n S 5 = @ o @ @ @ ; > - - - - - > > 8 = O O o                 ",
"                      . . . O - = 5 V -.>.5 : & @ @ @ O @ # # % - O O - > = * & O o o               ",
"                      .   o O ; q -.=.T o.P w i - @ O O O ; ; * @ @ O @ @ O & @ & o . .             ",
"                          . O % q -.! P +.{ i : @ @ O O O @ O @ % @ o o o o o o . . .               ",
"                      .   . . & > T %.o.P 5 ; & O o o . O O O @ @ O   .   . . o . . o               ",
"                              O # -.1.2.+.q ; * * O o O o O ; # @ O .   .     o O o o .             ",
"                          . . . @ 5 o.%.o.q % & O . O O o O @ @ O o o o     o o o o     .           ",
"                            .   o # P Y : * & @ O O . . o . o o o o o o X   o @ o o o .             ",
"                            .   o o & # O O O O O . o .   . . . . . o     X   @ O o                 ",
"                                      o o o o       o   .   o   .       X   o @ +                   ",
"                                                      .   o                 o o                     ",
"                                                        o   o .               o                     ",
"                                                                                                    ",
"                                                                                                    ",
"                                                                                                    ",
"                                                                                                    "
};
