/* XPM */
static char *_9a35f4d02134e5fbd6124ffa83a382fRESNH9UoFspfcCRC[] = {
/* columns rows colors chars-per-pixel */
"50 50 169 2 ",
"   c None",
".  c #090301",
"X  c #2B2524",
"o  c #313133",
"O  c #3A3633",
"+  c #4F4C48",
"@  c #524846",
"#  c #4F585D",
"$  c #595052",
"%  c #5D5B5E",
"&  c #645E5E",
"*  c #5C5F66",
"=  c #5B5F6D",
"-  c #5A5F72",
";  c #576067",
":  c #5A6465",
">  c #5D626C",
",  c #5D6475",
"<  c #676362",
"1  c #6C6865",
"2  c #65666D",
"3  c #68676D",
"4  c #64686B",
"5  c #6C6B6C",
"6  c #726A64",
"7  c #796F65",
"8  c #726D6D",
"9  c #75716C",
"0  c #7A756F",
"q  c #626674",
"w  c #676C75",
"e  c #6D6E74",
"r  c #616679",
"t  c #636A7A",
"y  c #6E6E78",
"u  c #736E73",
"i  c #786F70",
"p  c #736E7B",
"a  c #6C727A",
"s  c #737274",
"d  c #7A7474",
"f  c #7D7975",
"g  c #74747A",
"h  c #7A757C",
"j  c #75797C",
"k  c #7C7B7D",
"l  c #81796F",
"z  c #827473",
"x  c #847B75",
"c  c #897F73",
"v  c #81777F",
"b  c #837C7C",
"n  c #897F7B",
"m  c #7E807B",
"M  c #898076",
"N  c #84827D",
"B  c #8C847B",
"V  c #8C887F",
"C  c #91857B",
"Z  c #928B7F",
"A  c #737581",
"S  c #797681",
"D  c #7D7D81",
"F  c #7C7A88",
"G  c #817D82",
"H  c #897F84",
"J  c #7D8281",
"K  c #848284",
"L  c #8B8583",
"P  c #8B8984",
"I  c #848389",
"U  c #8A848B",
"Y  c #8D8A8C",
"T  c #958784",
"R  c #948B84",
"E  c #9A8D84",
"W  c #958D8B",
"Q  c #998D8A",
"!  c #979086",
"~  c #9B9284",
"^  c #95928B",
"/  c #9C928C",
"(  c #8C8C90",
")  c #958F92",
"_  c #949294",
"`  c #9C9492",
"'  c #979892",
"]  c #9F9892",
"[  c #9C9A9B",
"{  c #A2958D",
"}  c #A3998D",
"|  c #AB9C8D",
" . c #A29690",
".. c #A59B94",
"X. c #AA9D93",
"o. c #A49C9A",
"O. c #AB9E99",
"+. c #AAA28F",
"@. c #A6A297",
"#. c #ABA194",
"$. c #A6A29E",
"%. c #ACA39C",
"&. c #B2A495",
"*. c #B1A49C",
"=. c #B8A79D",
"-. c #B4A99C",
";. c #BCAC9F",
":. c #ACA4A1",
">. c #AEA9A4",
",. c #AFA4A8",
"<. c #AFAEA9",
"1. c #B1A7A5",
"2. c #B4AAA3",
"3. c #BBAEA4",
"4. c #B5ABAB",
"5. c #BBADAA",
"6. c #BFB2A6",
"7. c #B7B0AA",
"8. c #BEB4AC",
"9. c #BBB8AF",
"0. c #BCB3B3",
"q. c #C3B4A4",
"w. c #C3B5AC",
"e. c #C4BAAC",
"r. c #CBBCAE",
"t. c #C1B6B1",
"y. c #C4BBB3",
"u. c #CBBEB4",
"i. c #C5BCBF",
"p. c #C9BEB9",
"a. c #CEC1B5",
"s. c #CBC2BB",
"d. c #D4C5B6",
"f. c #D2C4BA",
"g. c #D5C9BB",
"h. c #D9CDBD",
"j. c #DACDBE",
"k. c #DECDBE",
"l. c #DBCBBB",
"z. c #D2C7C1",
"x. c #D0CCC3",
"c. c #D4CBC4",
"v. c #D5CCC7",
"b. c #D2CEC3",
"n. c #D9CBC0",
"m. c #DACEC1",
"M. c #DCCEC3",
"N. c #D0C5C9",
"B. c #D5CBC9",
"V. c #D8CECC",
"C. c #DED2C2",
"Z. c #DDD1C5",
"A. c #DED4CE",
"S. c #DDD5D2",
"D. c #E2D4C6",
"F. c #E4D4C5",
"G. c #E3D5C8",
"H. c #E2D8D3",
"J. c #E3D9D7",
"K. c #E3DBD8",
"L. c #E7DFDC",
"P. c #E8E0DD",
"I. c #EEE7E1",
"U. c #F2EAE6",
"Y. c #F5EBE2",
"T. c #F0EBE8",
"R. c #FFFDF4",
"E. c #FFFBF8",
"W. c #FFFDFA",
/* pixels */
"                                                                                                    ",
"                                                                                                    ",
"                                                                                                    ",
"                                                                                                    ",
"                                                                                                    ",
"                                                                                                    ",
"                                                                                                    ",
"                                                                                                    ",
"                                                                                                    ",
"                                                                                                    ",
"                                                                                                    ",
"                                            X   X                                                   ",
"                  U.I.v.c.f.t.t.%...@.] ` R / ` :.:...W L T W _ { X.O.:.7.9.                        ",
"                U.U.A.p.u.2.X.&.} ^ } %...~ !  .@.%.o.` Q ! Q Q ~ E  .2.t.y.8.O                     ",
"              T.L.H.z.y.5.*.{ E ~ B #.#.| / c R C E ~ ~ /  .E B T C } *.y.y.s.>.+                   ",
"            E.K.J.v.s.u.u.3.| T Z ~ ;.6.+.C B c n B B R  .O.! C C T X.e.s.p.s.S.$.                  ",
"          R.M.k.d.k.d.d.l.r.-.X.!  .&.+.Z M l d i d f B Z ! ] W E | 3.r.u.d.d.g.f.f.w.              ",
"        W Y.a.q.r.k.k.l.h.a.6.X.` ! R Z ! R M s 8 x x B Z ~ $.:.=.q.u.d.l.g.g.h.a.6.5.V.$           ",
"        d H.5.q.r.F.F.h.h.a.8.%.` W V N Y / ' / Q ../ T T ..t.p.f.f.n.Z.h.h.k.D.f.w.6.p.@           ",
"      & :.w.e.-.r.F.G.z.a.8.3.@.( P U I U _ >.y.x.s.1.` / O.w.a.u.f.g.f.g.h.C.G.d.w.w.0.W           ",
"          2...X.q.u.f.y.2./ W L m a y A A J [ 9.x.p.1.) Q Q ~ | *.3.t.w.e.a.a.a.q.X.O.X.B.          ",
"            ..E E } X.o.W x 8 < : ; * , - q k ! @. .Q H G i 7 c ~ X.-.-.%.&.#.} E E  .O.4.          ",
"            >.W M n n H b s 1 % # ; , , = * 5 d b N H v d 8 6 z W ` ] / ! V M M n Q T O.            ",
"              >.T x 9 s v G D w : w A j g g u u 8 b L G G h i n ! ! P V N 0 0 x Q Q 2.              ",
"                b Y b s h K D S q w D J G k G i g G K K K j y g b N d k 9 5 m K $.)                 ",
"                  [ P 5 h I G D g y j P P H G p u G K N m A w r 5 s k s s j s [ U                   ",
"                    Y K s k h ( F a f P R P v h p H K m J A , , 5 d s e j j ( _                     ",
"                      K g g j I H g d N R L v G h H U K J w , , s d b k 9 m _                       ",
"                        I D y D J S k N T L n n v U P U D w > t d d k b Y I o                       ",
"                          s K s F S k k L L x x N T W Y D > > a x n L K P [                         ",
"                            $.8 s j g k L L M C E { / U k 3 4 j n W T [ _                           ",
"                            Y Y s g g S I L Z Z } X.` I h 4 e m T ` @.o.                            ",
"                              [ D s s s U ) W o.1.X./ c 6 9 x P o.4.0.                              ",
"                                [ k 3 u Y )  .o. .*.{ x l f N ' ,.N.                                ",
"                                  k 9 3 k W ..W X.&.C C ^ Z ^ <.i.                                  ",
"                                  Y k 5 1 n T ! E | { | ..E ` ^                                     ",
"                                    Y V 9 9 Z | &.| | &.X.{ :.                                      ",
"                                      ' N N } #.=.&.q.;.} Q :.                                      ",
"                                        $.V @.e.q.q.;.| =.O.                                        ",
"                                          $.2.e.d.q.;.=.2.                                          ",
"                                          d 9.g.D.u.w.O.z                                           ",
"                                            o.%.e.u.3.5.                                            ",
"                                              . n A.p.:.                                            ",
"                                              . L L.0.                                              ",
"                                                o.W.                                                ",
"                                                                                                    ",
"                                                                                                    ",
"                                                                                                    ",
"                                                                                                    ",
"                                                                                                    "
};
