/* XPM */
static char *result[] = {
/* columns rows colors chars-per-pixel */
"49 49 238 2 ",
"   c #75BD79",
".  c #7DD771",
"X  c #76CE6A",
"o  c #7FE673",
"O  c #90E65F",
"+  c #85DA79",
"@  c #9ADE75",
"#  c #A4DF7B",
"$  c #97E764",
"%  c #93EC78",
"&  c #85EE72",
"*  c #A9E774",
"=  c #ACF877",
"-  c #7BB6BB",
";  c #7CC887",
":  c #7CC3A9",
">  c #79C3B1",
",  c #88BBBD",
"<  c #88CB8C",
"1  c #89D788",
"2  c #8DD395",
"3  c #96D897",
"4  c #8ECE8F",
"5  c #A1DC93",
"6  c #98E98D",
"7  c #9DE59B",
"8  c #AAE887",
"9  c #B1E98A",
"0  c #B7F988",
"q  c #A9E899",
"w  c #B5EA92",
"e  c #A8F299",
"r  c #BCFB92",
"t  c #B9F29D",
"y  c #A9F88A",
"u  c #89C7B7",
"i  c #8BD4BC",
"p  c #9AD4B7",
"a  c #92CCAD",
"s  c #A4DBA8",
"d  c #9EE0A9",
"f  c #AAEBAA",
"g  c #B8EDA6",
"h  c #A8F4AB",
"j  c #BBF6AB",
"k  c #ACEDB4",
"l  c #A9EDB7",
"z  c #ABF4B5",
"x  c #B6F8B9",
"c  c #B1E9BD",
"v  c #C4FF94",
"b  c #C5FE9B",
"n  c #CBFF9C",
"m  c #C6F99A",
"M  c #CCFFA5",
"N  c #CEFEAC",
"B  c #C5F9A7",
"V  c #C5F5B4",
"C  c #CBFDB8",
"Z  c #C8F9B6",
"A  c #D3FEB3",
"S  c #D5FEBB",
"D  c #C6EFAF",
"F  c #9AB5D1",
"G  c #A9BED8",
"H  c #B7BADC",
"J  c #A3AED3",
"K  c #A7B6E2",
"L  c #BABBE3",
"P  c #B1BFF2",
"I  c #C5BED4",
"U  c #C0B6C6",
"Y  c #8AC6C4",
"T  c #95C9C9",
"R  c #99D4C6",
"E  c #9AC7D4",
"W  c #9CD7D7",
"Q  c #8BD0C4",
"!  c #A3DCC3",
"~  c #A6DBC9",
"^  c #A8C7DA",
"/  c #A2D6D9",
"(  c #B2D5DB",
")  c #B3D7D6",
"_  c #99E2C9",
"`  c #ACE4CC",
"'  c #A7E4C7",
"]  c #B4ECCD",
"[  c #B6E9C8",
"{  c #BBF1C3",
"}  c #B9F7C8",
"|  c #ABE6D5",
" . c #B4E6D2",
".. c #B5ECD1",
"X. c #BCEDD3",
"o. c #BBE4DC",
"O. c #BDEDDC",
"+. c #B4E5D8",
"@. c #A8F4DB",
"#. c #BBF2DB",
"$. c #BAF6D8",
"%. c #ACC9EA",
"&. c #B2C4E3",
"*. c #B8C9E8",
"=. c #A7D9E3",
"-. c #BBDEEA",
";. c #B8D6E6",
":. c #B9CBF4",
">. c #BAD2F6",
",. c #ADE6E6",
"<. c #BBE2EC",
"1. c #B6E7E7",
"2. c #BCF2E5",
"3. c #BBE4F2",
"4. c #BAECF7",
"5. c #B6F3F0",
"6. c #CAC7D6",
"7. c #D5CBDC",
"8. c #DCCBDC",
"9. c #D2C6D5",
"0. c #D9D2DE",
"q. c #E1CDDD",
"w. c #CCFEC3",
"e. c #CAFBCB",
"r. c #C5FAC9",
"t. c #D4FEC3",
"y. c #D9FFC4",
"u. c #D4FFCB",
"i. c #DAF6CC",
"p. c #C1EED5",
"a. c #C3F3D4",
"s. c #C4FCD2",
"d. c #C3F4DC",
"f. c #CBF4DA",
"g. c #CBFCDC",
"h. c #C8FAD7",
"j. c #D4FED2",
"k. c #D7FADA",
"l. c #E1F8DD",
"z. c #C4CBE2",
"x. c #C6C8EB",
"c. c #D7CEE3",
"v. c #CCDAE6",
"b. c #CADCEC",
"n. c #C5D8EA",
"m. c #D5D3E5",
"M. c #DDD5E5",
"N. c #DCDBED",
"B. c #D6D5EA",
"V. c #C5CAF6",
"C. c #C6DCF1",
"Z. c #CBD9F7",
"A. c #D2DCF3",
"S. c #DDDAF4",
"D. c #DEDAFD",
"F. c #D6D6FB",
"G. c #E4CFE5",
"H. c #E3D5E4",
"J. c #E4D9E5",
"K. c #E4DCEC",
"L. c #ECDCEC",
"P. c #E6D6E7",
"I. c #F2DAEA",
"U. c #E2DCF4",
"Y. c #EADFF5",
"T. c #E4DEFC",
"R. c #E6D9F5",
"E. c #C3E4E5",
"W. c #C3ECE5",
"Q. c #C2E2EC",
"!. c #CCE2EC",
"~. c #C6EAEB",
"^. c #CCECED",
"/. c #CAECE7",
"(. c #DDE3EE",
"). c #D1E8EF",
"_. c #C4F4E3",
"`. c #C5FCE4",
"'. c #CDFCE4",
"]. c #CAF3ED",
"[. c #CDFDEC",
"{. c #C8F4E7",
"}. c #D3FEE4",
"|. c #D5FFEA",
" X c #DCFDE8",
".X c #C2E5F3",
"XX c #CCE4F2",
"oX c #CCEBF5",
"OX c #CEE3FC",
"+X c #CDEDF9",
"@X c #C5E8F8",
"#X c #D5E4F4",
"$X c #DBE3F5",
"%X c #D4EBF5",
"&X c #DCEBF5",
"*X c #D4E3FC",
"=X c #DBE6FC",
"-X c #D4EBFC",
";X c #DCEDFB",
":X c #CCF4FE",
">X c #C9F8F8",
",X c #D4F3F4",
"<X c #DAF5F6",
"1X c #D4FDF5",
"2X c #D5F4FC",
"3X c #DCF4FE",
"4X c #D4FCFC",
"5X c #DCFBFE",
"6X c #DAFCF6",
"7X c #EEE2ED",
"8X c #F1E5EE",
"9X c #E5E3F4",
"0X c #EBE3F4",
"qX c #E4EBF4",
"wX c #EBECF6",
"eX c #E5E3FC",
"rX c #EDE6FD",
"tX c #E3EDFC",
"yX c #ECECFC",
"uX c #F3E4F3",
"iX c #FAE6F4",
"pX c #F4EBF4",
"aX c #F9EEF6",
"sX c #FFE5FB",
"dX c #F3ECFD",
"fX c #FDECFC",
"gX c #F2E6F8",
"hX c #E4F4FE",
"jX c #EBF4FE",
"kX c #E3FCFF",
"lX c #EBFAFF",
"zX c #E8F1F7",
"xX c #F4F4FF",
"cX c #FDF3FE",
"vX c #F3FBFF",
"bX c #FEF9FF",
"nX c #E8FFE4",
"mX c None",
/* pixels */
"mXmXmXmXmXmXmXmXmXmXmXmXmXmXmXmXmXmXmXmXiXaXbXaXbXaXcXaXbXmXmXmXmXmXmXmXmXmXmXmXmXmXmXmXmXmXmXmXmX",
"mXmXmXmXmXmXmXmXmXmXmXmXmXmXmXmXI.iXcXcXcXaXaXbX8XaX8XbXbX7XcXcXcXmXmXmXmXmXmXmXmXmXmXmXmXmXmXmXmX",
"mXmXmXmXmXmXmXmXmXmXmXmXmXmXfXcXfXfXiXiXiXiXI.J.aXaXbX8XfXcXL.H.fX7Xq.mXmXmXmXmXmXmXmXmXmXmXmXmXmX",
"mXmXmXmXmXmXmXmXmXmXmXmXfXsXfXsXcXiX8.q.aXcX7XL.cXaXuX7XcXcXcX8XL.aX8XI.fXmXmXmXmXmXmXmXmXmXmXmXmX",
"mXmXmXmXmXmXmXmXmXmXsXfXcXfXL.8.G.I.8.P.cXcXJ.8XcXfXH.9.cXcXdX7.xXbXcX9.H.cXL.mXmXmXmXmXmXmXmXmXmX",
"mXmXmXmXmXmXmXmXmXsXsXL.H.L.uXuXfXfXI.P.L.H.0.gX0.dXcX7.gXcX0X0X0X0XbXpXaXcXuXY.mXmXmXmXmXmXmXmXmX",
"mXmXmXmXmXmXmXmXG.I.uX8.9.9.J.M.9.8.7XgXP.L.dXcXP.0XP.U.Y.c.Y.cX6.I 9XbXpXJ.J.0XcXmXmXmXmXmXmXmXmX",
"mXmXmXmXmXmXmXfXG.P.uX9.H 9.M.K.9.H.cXfX8.L.bXcXH.7.dXcXB.c.rXcX9Xm.(.xX0.6.eXcXrXF.mXmXmXmXmXmXmX",
"mXmXmXmXmXmXcXfXgXdXdX0XK.gX0XK.K.M.0XgXdX0X0XxXM.dXdXK.yXU.B.rXeXT.dXD.T.rXS.T.T.F.D.mXmXmXmXmXmX",
"mXmXmXmXmXR.R.dXcXdXfXcXcXxXgXdXgX0XgXgXdXgX0XgX0XxXdX9XxXrXB.S.rXdXrXB.dXxXT.rXS.D.T.L mXmXmXmXmX",
"mXmXmXmXsXT.I rXdX0XdXcXcXcXdXdXbXxXcXxXxXcXwX0XxXxXyX9XxXxXU.N.yXxXxX9XrXxXdXm.m.xXeXz.F.mXmXmXmX",
"mXmXmXmXrXT.6.rXxX9X0XxXxXbXdX9XxXxXyXjXxXbXwX9XxXdX0XN.tXxXyX9XxXxXxXyXyXyXtX6.0.bXqXqX=XmXmXmXmX",
"mXmXmXT.T.T.U.rXxX9XrXbXjXrXjXdXjXyXwXjXxXxXxXyXxXjXxXjXyXjXyXtXjXxXwXwXxXqXzXwX<XlXlXjXjXhXmXmXmX",
"mXmXmXF.F.dXcXeXyXxXvXxXyXtXxXxXyXxXjXxXxXjXxXvXvXwXxXvXjXxXjXjX&Xm.(.jXvXzXvXvXvXjXlXlXlX=XmXmXmX",
"mXmXyXV.x.T.dXB.N.xX9X9X$XtXvX=X$XyXjXjXqXqXjXjXwXqXjXxXqXjXvXlX#Xz.$XjX;X&XlXhXhXA.Z.hXZ.:.K mXmX",
"mXmXeX:.L x.yXx.H eX#X=XA.z.tXjXv.hXxXjXwXwXxXxX$X(.jXxX(.jXlXjXhX=XlXlXqX).=XhXA.*.&.*XZ.F *.mXmX",
"mX:.V.V.V.&.Z.F.Z.Z.A.A.A.z.A.tXN.tX$XtXjXjXvXtXwXqXqXtXzXhXzXhXhXlXlXlXkX<X;X;Xb.b.n.-XZ.;.OX>.mX",
"mXP K =XwX:.L F.jX;X=XeXjX=XA.tXhX$Xv.qXjXzXjXjXvXlXhXzXjXlXjXhXlXhXhXlXlXjX<X;XlXkX;Xb.;XkXXXOXmX",
"mX:.K *XtXV.J F.jXF.*.A.lXhX*XtXvXzX$XhXjXjXhXzXjXlXlXjXjXkXlXlXjXlXjXhXhXlXlXhX;XlX;X=X;XhXlXkXmX",
"mX>.:.*XlX:.&.-X=Xn.G C.hXhX$X;XhX;XtXqXzXjXhXjXjXlXvXlXlXlXjXhXtXjXhXB.v.tXlXjXlXlXlXlXlXlXlX;XmX",
":.OXOX>.OXOX-Xb.OXXX*XkX3XhXhXkXkX;X&X;XhXlXjXlXhXlXlXjXhXhXkXjXhXhX;Xb.b.;XhXhXkXjXhXkXlXlX3X3X@X",
"%.%.>.&.&.Z.=X*XXX-XkX3Xn.!.&X%X<XjXlXjXlXlXlXkXlXhX&X%X;X3X3X3X#X-X3XkXlXhXkXlXlX3XhXkXhX3XkXkX5X",
"F :.%.%.&.-XkX;X=X3XhXOXb.#X3X#Xv.hXkXkXhXhXlXhX&XhXlXkX!.n.!.kXkX5XkXkX5XoX.XXX2X^ XX+XoX4XoX4X5X",
"%.@X2XOX3X3X-Xn.^ ;.b.;.b.%XkXhX3XlX3XkXhX%XkXhX%X!.!.3XlXkXkXkX5X+X-.-.@X2X2X5X3.Q.<.2X2X^ ^ @X4.",
"4X5X5X3X3X;X!.%X!.!.2X!.).kX<XlXkX5XoX!.XX!.!.%XkXlXkXkXkXkX2XoX@X<.:X6X~.-.Q.-..X4.<.3.=.W >.4.E ",
"%.@X5XkXkXlXkX5XkXhXkX3XkXkXhX<XXXn.n.%XkXkXhXlXlX5XoXn.XX-X3X+X5X5X( F -.:X;.E 3.5X:X:X@X4X4.E E ",
"%.^ ;.b.-XkXkXlXkXkXkXkXhX3X&X3X3X3X3XkXkXkX3X,X^.%X%X-X3X5XoX;.oX5X^.( ~.4X@X;.2X5X:X:X:X4X>XE / ",
"Q.;.;.*X3XhXkXkX3X3X2XkXkXkXkX3X3XkXkXkX5XkXkX3XkX5X3X5XkXkX5X2X5X,X2X5X2X5XkX4X4X:X<.4.4.=.,.W / ",
"2X2X5XkXkXkXkX%X3X5XkX5XkXkXkXkXkX3X5XkX5XkXkXkX%X%X3X5X5X<X5X5X5X^.,X5X5X2X4X2XoXE , E W , W 5.R ",
"mXkX5X5X<X3XkXhX5X5XkX3X,X2X,X<X4X5XkX5XkX5X5X5X5X5X5X6X,X<.E.^.) ) ~.,X,X~.>X4X].| 1.2.,.Y u Q mX",
"mX2X2XkXkX5XkXkX5X2X^.oX+XoXoX~.Q.,X,X,X6XkXkXkX6X6XkXkX5X<X4X<X~.) 1.[.~.W.1X4X[.R | >X@.> > _ mX",
"mX4XkX5X2X~.~.( ( Q..X:XQ.( !.2X5X,XE.^.kX6X^.^.,X,X^./.].6X5X4X5X1X,X4X4X].o.R R ` R Q i @.@.Q mX",
"mX>X3.,.4.4.T =.4.=.F 1.@X<.^.6X5X1X1.,X,X,X>X~.<X<XE.E.,X6X<X,Xo.3X4X1X5X5X{.[./.[.d.a u ` _ : mX",
"mXmX- =.4.W Y 4.>X4.Y W 4X5X/.,X1X1X1.o.1X1Xo.~.,X5X~.{.6X6X/.W.d.p.o.~ | $.2. .{.1X|.d.p.d.$.mXmX",
"mXmXW ,.W Y W Q W ,.,.,.>X2.o.[.1X2.2.+.[.1X2.'.[.1Xd._.[.'._.d.}.[  .! | ..' p ` ] a.g.g.}. XmXmX",
"mXmXmXY u Q | 1.Q R 2.| ~ ' +.#.#.#.$.O.#.#._. .#.#.X.X.....a.f.a.a.[ ] $.$.} $.} d [ ' c { mXmXmX",
"mXmXmX> R @.! ` a u $.R u ' #.! p ) p. .`  .d.X.` ! a.p.[ ' a.} h.h.} s.} z } s.c 2 s x z 2 mXmXmX",
"mXmXmXmX: ` ` p a ' `.` i #.`.| ! ~ }.d.` _.{.}.[ ! '.'.X.[ g.s.c 3 d } l < l k 2 < < h h mXmXmXmX",
"mXmXmXmX' ] ] a.O.`.[.@.` `.[.'.d.[ }.'.[ f.f.f.g.X.f.k.s.g.g.h.l ; < z 3 X d 6 1 7 X 1 1 mXmXmXmX",
"mXmXmXmXmXg.h.}.|.'.'.|.#.h.a.X.g.f.p.a.d.f.X.k. Xs.{ r.{ e.x } x h h x 7 7 7 ; 6 6 X o mXmXmXmXmX",
"mXmXmXmXmXmX Xg.|.}.f. X^.f.f.p.}.e.[ { e.r.s { r.r.s < k g 3 3 x t.w.g x C 7 . + o o mXmXmXmXmXmX",
"mXmXmXmXmXmXmX}.f.k. X XnXk.l.f.r.r.e.e.j.k.x r.V w.f 3 j g 1 7 D Z j 5 e j 6 . o & mXmXmXmXmXmXmX",
"mXmXmXmXmXmXmXmXk.k.nXl.l.i.k.j.t.u.e.w.w.i.r.w.V Z j j C C j Z Z q 5 q t % % % o mXmXmXmXmXmXmXmX",
"mXmXmXmXmXmXmXmXmXu.i.i.l.j.j.u.u.t.t.t.C D g g D g g t g B B B q t t 6 8 8 y % mXmXmXmXmXmXmXmXmX",
"mXmXmXmXmXmXmXmXmXmXt.t.S y.t.t.t.S C y.y.S i.S S S S S S N t t w 9 9 8 9 9 0 mXmXmXmXmXmXmXmXmXmX",
"mXmXmXmXmXmXmXmXmXmXmXmXS Z C S A Z D D D A S N A A A N M M M M M M M M n mXmXmXmXmXmXmXmXmXmXmXmX",
"mXmXmXmXmXmXmXmXmXmXmXmXmXmXN A A N S N N N m w m 9 9 # # 9 v n v n v mXmXmXmXmXmXmXmXmXmXmXmXmXmX",
"mXmXmXmXmXmXmXmXmXmXmXmXmXmXmXmX0 8 0 r n n v m v m v v n v * * * mXmXmXmXmXmXmXmXmXmXmXmXmXmXmXmX",
"mXmXmXmXmXmXmXmXmXmXmXmXmXmXmXmXmXmXmXmX$ = $ $ 0 = O = = mXmXmXmXmXmXmXmXmXmXmXmXmXmXmXmXmXmXmXmX"
};
