/* XPM */
static char *_635f378e1af4f06a0a4b7272e3f0e907d3xKGP4A7V192lf[] = {
/* columns rows colors chars-per-pixel */
"48 48 200 2 ",
"   c None",
".  c #160505",
"X  c #1C0403",
"o  c #150806",
"O  c #1C0A05",
"+  c #160609",
"@  c #1C0609",
"#  c #170A0C",
"$  c #1C0B0A",
"%  c #1D120A",
"&  c #1F1211",
"*  c #230404",
"=  c #2B0403",
"-  c #240905",
";  c #2B0A05",
":  c #240509",
">  c #2B060A",
",  c #240B0B",
"<  c #2C0B0C",
"1  c #330302",
"2  c #3B0202",
"3  c #330A05",
"4  c #3B0A06",
"5  c #33050B",
"6  c #3D060C",
"7  c #330B0C",
"8  c #3B0C0B",
"9  c #24110D",
"0  c #2B110D",
"q  c #321006",
"w  c #32110E",
"e  c #3C110F",
"r  c #250E11",
"t  c #2D0C11",
"y  c #390710",
"u  c #320D11",
"i  c #3A0D12",
"p  c #251212",
"a  c #2F1113",
"s  c #2D1112",
"d  c #2D1315",
"f  c #2A1515",
"g  c #2E1415",
"h  c #2F1716",
"j  c #2B1212",
"k  c #211A12",
"l  c #2F1812",
"z  c #311211",
"x  c #361215",
"c  c #301516",
"v  c #371615",
"b  c #341212",
"n  c #391515",
"m  c #3B1213",
"M  c #331916",
"N  c #391917",
"B  c #321919",
"V  c #361B1A",
"C  c #3D1C1B",
"Z  c #3D211F",
"A  c #430201",
"S  c #4A0202",
"D  c #420A05",
"F  c #42070A",
"G  c #4D0409",
"H  c #430B0B",
"J  c #4A0C0E",
"K  c #4D0A07",
"L  c #520202",
"P  c #5C0203",
"I  c #510B03",
"U  c #53060B",
"Y  c #520B0B",
"T  c #5C0A0C",
"R  c #59060A",
"E  c #44130C",
"W  c #54130C",
"Q  c #5C1A0C",
"!  c #430C11",
"~  c #4E0D13",
"^  c #560C10",
"/  c #5B0C13",
"(  c #570713",
")  c #431213",
"_  c #4B1212",
"`  c #481619",
"'  c #431C1B",
"]  c #4D191A",
"[  c #461518",
"{  c #541213",
"}  c #5C1315",
"|  c #521719",
" . c #5B1219",
".. c #531B1B",
"X. c #5C1C1D",
"o. c #541B15",
"O. c #640002",
"+. c #6B0203",
"@. c #66020A",
"#. c #600C09",
"$. c #6B0A08",
"%. c #730303",
"&. c #7A0A0C",
"*. c #630F18",
"=. c #720D16",
"-. c #631614",
";. c #6B1415",
":. c #60141B",
">. c #661D1C",
",. c #701717",
"<. c #731B1C",
"1. c #781817",
"2. c #48201F",
"3. c #61201E",
"4. c #70281C",
"5. c #6C1E25",
"6. c #452321",
"7. c #4D2321",
"8. c #432826",
"9. c #532324",
"0. c #572929",
"q. c #5C2E30",
"w. c #632324",
"e. c #6C2321",
"r. c #6B2B2E",
"t. c #6B242A",
"y. c #722324",
"u. c #7C2222",
"i. c #752429",
"p. c #742C2E",
"a. c #792C2E",
"s. c #78322E",
"d. c #7D2E34",
"f. c #742D32",
"g. c #6E3938",
"h. c #743236",
"j. c #783438",
"k. c #7E393F",
"l. c #743A36",
"z. c #7B403C",
"x. c #860F18",
"c. c #871518",
"v. c #971B1C",
"b. c #A1121E",
"n. c #881E22",
"m. c #941E23",
"M. c #991726",
"N. c #A31A24",
"B. c #A51E33",
"V. c #8D252C",
"C. c #82272A",
"Z. c #972D2F",
"A. c #9E282C",
"S. c #85352D",
"D. c #872C30",
"F. c #992F3C",
"G. c #853436",
"H. c #86373D",
"J. c #8F373B",
"K. c #80393E",
"L. c #833836",
"P. c #963939",
"I. c #933233",
"U. c #A32225",
"Y. c #B02B2B",
"T. c #A32A33",
"R. c #AB333E",
"E. c #B93539",
"W. c #C03E3F",
"Q. c #853D42",
"!. c #883C42",
"~. c #933E40",
"^. c #B52B42",
"/. c #A73E49",
"(. c #B6374A",
"). c #B93846",
"_. c #C23D43",
"`. c #8A444A",
"'. c #824245",
"]. c #9A4346",
"[. c #8F4D50",
"{. c #965258",
"}. c #975255",
"|. c #A74040",
" X c #B94A50",
".X c #A5585B",
"XX c #B6575A",
"oX c #9F5C62",
"OX c #A76060",
"+X c #AD6264",
"@X c #CD4048",
"#X c #C04444",
"$X c #D1494B",
"%X c #C6575D",
"&X c #D7555E",
"*X c #DE5658",
"=X c #C05B60",
"-X c #E45E66",
";X c #CB6065",
":X c #EA6368",
/* pixels */
"                                      w ' 0.q.9.[ [ ] ) ..                                      ",
"                                < n 6.7.' ' m 8 5 8 ) 8 5 i ) |                                 ",
"                          B B 8.Z z 0 z 7 < > u u 7 7 m 7 = = i = * 8                           ",
"                        Z z z M l - * 0 w < ; n x > = b n 7 < < w ; = >                         ",
"                    n C n ; - - 9 , 9 M c , < < z , * j d < - N x < * s < *                     ",
"                  q ; - - < 0 l d p , , , , 0 , 0 j , 0 j 9 0 , s g g l d 9 d                   ",
"                * ; 9 % % % & o O 9 g 9 0 s s , , , p , $ j f . $ f f , , 9 g ,                 ",
"              7 - 0 9 % % k & , , g g : , c g , , c l , , p f p & p p $ : s j : *               ",
"            N z z d s 0 t r r : , , < s < r t , a < , j , : p , p r , d r : r : p $             ",
"          , , d s < t u x t t u t < < t t < < t a < < s s , , j t < , c c r p , j $ $           ",
"        r , X g r > t u x t > x z < < u u < = u t > , z s , < u u > > z t , @ a j , , t         ",
"        p , : t t r t t t t > u < < < u u 7 > b u < > < < < > x u > < < r < : c j < < u         ",
"      , , r r t t t u 5 > y 7 < < < u 7 w 7 7 7 7 7 7 7 < < < < ; < 7 7 7 u 8 u u u t < <       ",
"    , $ : r j : > t < < > u u ; 7 z w < < 7 b 7 < b b ; 7 z 7 - - < w < 7 i i 7 > u t : $ 9     ",
"    , $ @ 9 p O , p 9 9 , 9 d - < q w < ; 7 e ; ; i e ; 7 b b > > e b ; > 0 0 , O 9 k . # &     ",
"    & # # $ & $ $ , , , O 9 0 - ; 0 0 3 7 7 w 1 = 7 7 > 3 b 8 D 4 ) ) 3 ; w - - O 9 9 X - 9     ",
"  + + p k @ $ 0 t - - 0 7 * ; 0 0 - ; 3 q 8 4 E e 1 1 ) 8 5 H >.w.o.D 4 4 ; 3 q q ; = 4 1 = 2   ",
"  # # r r @ . p j - * 7 7 ; < s 0 ; ; q 4 2 1 H _ J H _ E H J A S A 2 E E D D Y I A S >.s.l.k.  ",
"  @ @ r r @ $ p p O @ r t > = u < ; ; 3 6 2 A Y } ^ U ^ ^ G 2 H 4 3 = 3 D Y @.x.B.^.)./.G.o.3   ",
"$ : : , r , , : , , > t t < t t < > 1 5 6 H ~  .} -.^ U D 2 2 4 2 1 = 1 W i.F.(.(.^.M.=.Y 2 ; X ",
"O % % O O , < : = > t > , r p > u y y y F ~ | _ H 4 2 1 2 2 D 2 A { f.Q.!.d.5.*.( R Y G F H e ; ",
". O % . * < 7 = = y t : , p j : t i i ! ! ~ _ 2 4 _ E 1 = ~ r.j.K.Q.f.^ 2 2 H = = 1 q 1 1 7 8 < ",
"O ; < = ; < ; - X - , * ; q 7 3 6 8 8 3 5 4 D 2 2 A / p.!.`.k.X.2 1 1 1 7 7 ; - - 0 0 * X ; < X ",
"l M b 3 1 3 = 3 = ; 1 = 3 4 4 4 4 1 = 1 1 2 A w.p.!.!.5./ J 2 1 = 7 q - - - - , * * - X - < . - ",
"% 9 M 2.2.] { } #.L L R I A 2 4 = = 2 W 4.s.L.a.X.A = 1 2 1 5 7 < X O 9 9 O * 5 5 1 = 7 < . O , ",
"O O * = e W } u.V.V.n.1.$.P P I Q 4.S.S.4.T S A 2 1 5 m m > * w w , - 0 0 - = i 6 5 > 7 < $ @ r ",
"* * = 5 F Y R P P P &.m.R.#X_._.E.U.c.+.O.L S W K D H 6 i m i 5 > 7 8 5 7 8 5 < : * , $ , % $ & ",
"1 F ^  . .Y U S R <.I.Z.A.U.M.b.N.N.V.c.1.;.-.A 2 H H 6 5 u 7 < = 8 6 1 1 5 > * X $ $ . # & @ @ ",
"( *./ G G :.i.H.d.a.>.S A S S A L #.;.;.,.<.y.e.X.| J 1 = > ; * * ; < = > i u : * r p o + # @ + ",
"  G  .t.f.h.r.J A 2 1 1 ; 3 ; = 1 1 2 A A S U A K ] 9.2.' ' C < , < < > > 7 < * X r , + # $ $   ",
"  g.g.9.8 = * * * > - = * * t 5 3 = > 3 3 1 ; 4 1 = 1 5 8 8 e ' ' n b b > * X * : @ . , : @ ,   ",
"  = X * ; - X , , X X r < = = 7 < > < ; 0 ; ; 3 q = = 8 4 1 = = 7 7 w C C N V g g * X : * X *   ",
"    + r , . O - , - X < 3 = = 3 7 = * 7 7 = > 3 4 = = 4 7 = = ; 9 * X ; , * - z N b b ' m 1     ",
"    $ @ # # $ $ $ - - - ; - = < > ; = < < ; ; < < ; ; < > ; = ; , - - - - - ; * - ; > 8 ' 7.    ",
"    $ + @ $ $ @ O $ , O @ , , , - , , : , < , , , , , - , < > > = : < - : > > * * : - * * <     ",
"      + . , $ @ . , r @ $ p , $ $ < r : : s < : * < t : : t , > : < t * : r , X X , r X X       ",
"        X , : : * t > : : y > > * > t : > r < > : t t > > t t @ @ $ p . @ & # $ + $ : +         ",
"        = > = 5 5 5 5 > > 5 > > ; < > ; > > > > > > t > > > > r @ , , # $ $ @ & # + + +         ",
"          2 2 F 6 2 2 8 7 ; > 7 3 = = ; < * ; > > * * , r : : > 5 = = > t @ @ @ # # #           ",
"            L R R L S Y I S D 2 4 1 1 8 4 = = ; < * X < : + * > 5 = * y < X X @ , +             ",
"              R.T.m.c.x.&.%.+.P L S A A S 2 2 4 4 1 ; 3 ; ; = ; - * * * O * O - @               ",
"                &X-X:X:X*X$X#X|.P.C.,.#.L S S A 2 1 2 1 2 1 1 ; ; ; - - - - X X                 ",
"                  c.v.U.Y.E.W.). X%X;X=X%XXXXX].P.G.y.-.Y S A 1 1 1 = = = = =                   ",
"                    O.O.+.+.%.+.@.O.+.@.,.u.D.J.].}..X+X+XOX.X}.[.'.h.w...J                     ",
"                        S S S U U G G G S A 2 A A 2 1 2 J ..w.h.k.`.}.oX                        ",
"                          ; = 1 = 1 1 4 8 5 5 5 5 4 5 5 1 = = 1 1 1 2                           ",
"                                : $ * , : : * > = * = ; > > ; 7                                 ",
"                                      @ $ @ + r : X * : ,                                       "
};
