/* XPM */
static char *_dff83331c0c40f096c6c532bf897017tveMlAqcrT8vtxq0[] = {
/* columns rows colors chars-per-pixel */
"49 49 218 2 ",
"   c None",
".  c #1B1D4F",
"X  c #0F1E54",
"o  c #141C54",
"O  c #1C1D55",
"+  c #161E59",
"@  c #1D1E5A",
"#  c #25164D",
"$  c #29194C",
"%  c #3B1346",
"&  c #33154E",
"*  c #3C144C",
"=  c #34194E",
"-  c #231D55",
";  c #2B1C54",
":  c #231D5A",
">  c #2A1D5B",
",  c #261555",
"<  c #3C1553",
"1  c #331B54",
"2  c #3B1C54",
"3  c #331D5A",
"4  c #3A1E5B",
"5  c #371654",
"6  c #0D2050",
"7  c #162355",
"8  c #1B2156",
"9  c #15225A",
"0  c #1D235C",
"q  c #1D2A5C",
"w  c #1A2857",
"e  c #23204F",
"r  c #242156",
"t  c #2B2356",
"y  c #24235C",
"u  c #2B245D",
"i  c #23295D",
"p  c #2A295E",
"a  c #242957",
"s  c #332155",
"d  c #3C2155",
"f  c #33235C",
"g  c #3C225C",
"h  c #34295F",
"j  c #20315F",
"k  c #271D60",
"l  c #2A1C61",
"z  c #371E60",
"x  c #1D2661",
"c  c #1E2A62",
"v  c #242561",
"b  c #2B2661",
"n  c #252A62",
"m  c #2B2B63",
"M  c #2D2D68",
"N  c #322560",
"B  c #3B2562",
"V  c #312E66",
"C  c #332A63",
"Z  c #3A2A64",
"A  c #342E69",
"S  c #3D2E69",
"D  c #2D3167",
"F  c #26316A",
"G  c #2E3269",
"H  c #323066",
"J  c #313269",
"K  c #363269",
"L  c #31356D",
"P  c #34336B",
"I  c #3A346C",
"U  c #36386E",
"Y  c #3A396F",
"T  c #393067",
"R  c #333972",
"E  c #393A71",
"W  c #44154C",
"Q  c #48154D",
"!  c #44194E",
"~  c #4A1C4C",
"^  c #54174D",
"/  c #4C1452",
"(  c #451B53",
")  c #4C1A52",
"_  c #431F5B",
"`  c #4D1B58",
"'  c #421752",
"]  c #521552",
"[  c #591654",
"{  c #521B54",
"}  c #5D1B53",
"|  c #541E5A",
" . c #5B1D5B",
".. c #65164B",
"X. c #621754",
"o. c #631B56",
"O. c #6A1C58",
"+. c #7D1454",
"@. c #751B5C",
"#. c #7F1A5B",
"$. c #741656",
"%. c #7A144C",
"&. c #472056",
"*. c #4B2157",
"=. c #44225C",
"-. c #4B235C",
";. c #4B2A5F",
":. c #562157",
">. c #53235C",
",. c #5A235D",
"<. c #61215D",
"1. c #6B235D",
"2. c #682457",
"3. c #77265A",
"4. c #4C1D60",
"5. c #4D2560",
"6. c #432965",
"7. c #472A66",
"8. c #5A2663",
"9. c #542963",
"0. c #5C2B66",
"q. c #522C69",
"w. c #582764",
"e. c #45306B",
"r. c #423C74",
"t. c #4C3771",
"y. c #593F7C",
"u. c #632563",
"i. c #642A65",
"p. c #6C2B65",
"a. c #6D2D6B",
"s. c #692662",
"d. c #752463",
"f. c #732A66",
"g. c #7C2A6A",
"h. c #782767",
"j. c #6F346C",
"k. c #78336D",
"l. c #7E3972",
"z. c #783773",
"x. c #3F4378",
"c. c #41437A",
"v. c #831C5A",
"b. c #8F1F59",
"n. c #8D1C53",
"m. c #961C59",
"M. c #87124E",
"N. c #A81C5E",
"B. c #87225F",
"V. c #91225B",
"C. c #9E265E",
"Z. c #801E63",
"A. c #921D63",
"S. c #A31F61",
"D. c #8B2465",
"F. c #822C62",
"G. c #87296A",
"H. c #8C286D",
"J. c #9B2564",
"K. c #9D2D6C",
"L. c #942269",
"P. c #89316F",
"I. c #99346D",
"U. c #8B3D7B",
"Y. c #873777",
"T. c #9B3372",
"R. c #9A3A74",
"E. c #9B3A7A",
"W. c #933677",
"Q. c #A72866",
"!. c #B32F6D",
"~. c #B82668",
"^. c #B33869",
"/. c #BF2E71",
"(. c #A23B74",
"). c #A83779",
"_. c #B93476",
"`. c #C5286A",
"'. c #C43574",
"]. c #C53A7A",
"[. c #CC3B7A",
"{. c #D23B77",
"}. c #84457E",
"|. c #8E447F",
" X c #8E487E",
".X c #B9406D",
"XX c #A8437C",
"oX c #C8487F",
"OX c #D7437C",
"+X c #C43E87",
"@X c #944C84",
"#X c #994788",
"$X c #96518E",
"%X c #A84984",
"&X c #B44985",
"*X c #B1508A",
"=X c #A15395",
"-X c #AA5599",
";X c #BC5892",
":X c #BB66A6",
">X c #C54F8C",
",X c #CE4E88",
"<X c #D24B89",
"1X c #D54782",
"2X c #C84C93",
"3X c #D54A94",
"4X c #C75D97",
"5X c #DC5A95",
"6X c #D65694",
"7X c #D9528C",
"8X c #EA5688",
"9X c #F35996",
"0X c #C3639D",
"qX c #DB639D",
"wX c #F36093",
"eX c #C869A5",
"rX c #D666A0",
"tX c #F264A7",
/* pixels */
"                                        h e.y.c.0.q.7.7.7.                                        ",
"                                J C K e.S e.e.7.S g g Z B B B B t.                                ",
"                            R J U H p C V B B f 6.3 B B g f h u C h -                             ",
"                        R G G G U H p h K Z Z Z Z f f f t u h u r K b r i                         ",
"                    n R R G D m m p p V K V h h h u u t u U c.Y Y c.p r v v x                     ",
"                  i n m G G P D G J P U Y K K V u u p y y U c.U E J p i G m x x                   ",
"                y v i p m P P D D D D D p H P V y y i y 8 i D n m 8 n m G F 0 m c                 ",
"              M m v u m D m m D p i m m y H P m m y m D 0 8 q p n y D m n m 0 v 0 0               ",
"            R L M A m v m p u m i m b m m m m b u m y y n i 0 i m i i i b m m M v 0 +             ",
"          n M M m b v u m y i y b b v b m m N b b m y y m i 0 i i 0 i y m M b m b v y +           ",
"        n n v v b v u b b u y b b b u u N b b v u b y y v v : y v y m v b V b C m M M x @         ",
"        n v v n b v b N b y u u b u v b b N N N b u > y u r : r u y y r y b v b b M M v 0         ",
"      c n v n M m b b b u v b y y u v b N C A A A b u u u : : - > y u > : u u m v b y y 0 x       ",
"      c c n v n v y v v > b C : y t u u u b N C N 3 u u u > u > : : b b u u y b u y @ : k 0       ",
"    0 x c v v k v y m b u A A : y u u u u u t u > > u h t > f u : , > u > : - b r : : 0 : @ @     ",
"    9 0 x c c x v y m M m U U v u u u b b b N f h 3 h B 3 > f > 3 1 3 f 3 ; > C O - - @ @ @ :     ",
"  x x 9 x x x v v v b A M m n n v v k : u > f f g h ; ; h h t g 5.>.9.5.1 1 t f r r - r : - , ,   ",
"  9 9 c c x 0 v M k b b M m v v v k v y p f 3 2 =.=._ 4 =.4 f =.q.i.0.=.< d 2 & 2 ( < * ' 5.q.q.  ",
"  + 9 c c x + 0 v v y u u b u t r r y t t t s 2 -.5.| | w.w._ =._ =.d = d -.:.[ @.A.L.A.K.%X%X|.  ",
"  X X 0 x 9 + 0 i @ @ r : t u t r r e e e s d &.,.a.a.s.8.8.-._ 2 g d d = W } G.).+X3X3X,X>XR.2.  ",
"9 7 o O 0 - O r + 8 8 8 0 : y > r r ; $ 1 ( -.,.i.i.8.8.5.=.d 2 &.( ! ) <.f.E.2X3X2X+X).T.G.2.~ s ",
"o w O O : r O O + 0 0 0 0 k : > t t > 4 =.=.-.8.,.) Q ) / W ! *.:.1.j. X$X#X#XW.H.Z.@.d.s.:.( 2 f ",
"6 7 7 + 8 - O : @ : 0 x @ v v : > z z z 4 4 -.-.* ! |  .[ o.h.U.@X@X@X}.j.,.*.-.4 & # 1 3 4 3 z V ",
"7 8 8 O : , > f , ; : , : > > y z 3 3 3 5 < ' ( ) { ,.a.U.=X-X#Xl.<.{ >.*.= t t t 0 y v v k l l y ",
"y i b f 3 3 5 < < * & 5 1 d s t t t $ = < Q  .O.l.Y.#X#XY.a.8.4._ 4 3 h h u r @ y : r : : v k v : ",
"- y f h 6.5.0.i.f.h.d.o.:.^ ~ ~ % % ~ :.p.Y.U.|.W.G.O.[ / _ 4 5 f v : y y y r : b b v u b n v 0 0 ",
"o O > 3 4 | p.P.).!.!.!.Q.C.n.n.n.V.K.XXXXI.B.$.o.] W ! 2 2 3 ; b > : y y i u y N > b C b m j w 0 ",
"> - # & ) o.d.D.A.S.N.`.{.OX1XOXOX[.'.!.C.V.%...} ` ( d 1 u u N > u > u b m u u u > t p p p j c q ",
"5 4.5.w.u.O.$.+.M.S._.[.[.+X].].'.'.'.'.~.Q.J.Z.../ ) g h f N u ; s h h C C u p u r y n n q j j c ",
"  0.i.<.o.h.P.E.E.).T.D.v.#.#.+.B.V.J.J.K.Q.T.W.k.i.9.=.; , > 3 > t f h h h h V u m n D G c q F   ",
"  s.f.h.Y.@XU.l.i.8.` ' < < 5 < % Q ) { } ,.u.u.| w.q.q.7.B Z B h p b b p u b b m m n n G v n R   ",
"  z.}.j.<. .` ' $ # # , : @ : > ; ; ; 1 = 1 2 < _ 5 4 z z z S S I K H V V m b y i m y y M n n c.  ",
"  7.Z f 3 , , , @ + O O O y : - t ; - t u ; - ; > ; ; , > f h f f N A A K J A m m v b y y m y 0   ",
"    o @ v v k + + + o 8 - y y r y r r y y r r - t y - - u h b u u f b u b b n y M m M b m J D     ",
"    0 i x + + x @ O + 8 8 a i 0 - : - , - r r - r - - t u f p t u a y y y i y y u b m C Z r.r.    ",
"      v 9 9 9 o 0 - O . . r 8 + O : : @ - : r O r - - - r t h p m p p y y y n y y u b u p V       ",
"      9 9 9 w o O O o . O O - : @ : k : @ : v r r r y y y b D m p p i i p p n m i p i m p i       ",
"        + + + 0 O + , . O : l , : @ @ @ : v v y @ 0 y i i m m p a q a i i q i v i n n n m         ",
"        k > : - 8 r : > > l l k : - @ r y v y i 0 y w i i i i q w w w q q 0 i q v n q c i         ",
"          3 3 , ; 1 3 4 5 3 l , t - - t a u a a i y a 8 y p i 0 i q q y i i 0 v c j q c           ",
"            4./ ] { ) W ~ ~ ( 2 s $ e s t t t p y t u y y : : y m t p t C u A v n F c             ",
"              U.W.D.3...3.2...^ Q W W *.;.;.g 2 f 3 u ; > u > : - h t - C b v n n F               ",
"                2X<X<X,XoX.X^.^.I.G.$.$...} ] Q ' * 2 s f f t r 8 a a . y y 8 8 x                 ",
"                  tX9X9XwX8X8X8X6X6X>X&XXX(.W.Y.f.p.,.) ( * * = $ # = ; # - y i                   ",
"                    '.`.OX{.OXOX1X7X5X5X5XqXrXqX4X4X4X*XXX|.I.P.g.<.<.,.` 4.3                     ",
"                        C.n.m.n.V.b.b.b.V.K.R.(.XX*X;X;X0XeXeXeXeX:X:X=X$X                        ",
"                            :.{ | { { ) :.) / W { ( ( Q Q :.>.i.z.@X@X                            ",
"                                ; & ; 1 f t s ; ; ; ; ; ; ; ; = %                                 ",
"                                        : - O - O r - O :                                         "
};
