/* XPM */
static char *edc7a2441b3845caccbac91a367d3559lTnV0rUL6F7ErJFQ[] = {
/* columns rows colors chars-per-pixel */
"40 40 186 2 ",
"   c None",
".  c #5E0C07",
"X  c #610F07",
"o  c #6E1A09",
"O  c #661407",
"+  c #711C08",
"@  c #75220A",
"#  c #79240A",
"$  c #7E2A0B",
"%  c #782709",
"&  c #822D0B",
"*  c #86320C",
"=  c #8B360C",
"-  c #8D3B0C",
";  c #923D0E",
":  c #8A3E17",
">  c #943F10",
",  c #8F4308",
"<  c #93410D",
"1  c #9B4A0D",
"2  c #97470D",
"3  c #96520E",
"4  c #9C520B",
"5  c #8A4010",
"6  c #9A4510",
"7  c #9E4A11",
"8  c #964010",
"9  c #9E5916",
"0  c #A4550D",
"q  c #A4590B",
"w  c #A95B0E",
"e  c #A14D12",
"r  c #A45311",
"t  c #A85513",
"y  c #AD5C12",
"u  c #AC630B",
"i  c #AB690C",
"p  c #B1640E",
"a  c #B56B0E",
"s  c #B66F0B",
"d  c #B7740C",
"f  c #BC740D",
"g  c #BF790D",
"h  c #B67908",
"j  c #AE671E",
"k  c #B26312",
"l  c #B66A11",
"z  c #BA7312",
"x  c #B9711B",
"c  c #B87916",
"v  c #965623",
"b  c #A25E24",
"n  c #99623C",
"m  c #AA6A23",
"M  c #AA6B29",
"N  c #B3742A",
"B  c #B97B25",
"V  c #A26130",
"C  c #AD7332",
"Z  c #C17C0D",
"A  c #C07D14",
"S  c #9D6540",
"D  c #B17E47",
"F  c #BD800B",
"G  c #BB8224",
"H  c #C5850A",
"J  c #C98B0C",
"K  c #CB8D06",
"L  c #CC9205",
"P  c #CE920D",
"I  c #D59D04",
"U  c #D1970D",
"Y  c #D49C0B",
"T  c #C48C14",
"R  c #C98C15",
"E  c #C28F1A",
"W  c #C98D1C",
"Q  c #C48412",
"!  c #CB9115",
"~  c #CE961B",
"^  c #CF9D1D",
"/  c #D49E12",
"(  c #D19B19",
")  c #DAAA0C",
"_  c #DAA60A",
"`  c #DFB00C",
"'  c #D4A114",
"]  c #D9A615",
"[  c #D4A11B",
"{  c #DAAC1B",
"}  c #DBAA13",
"|  c #DEB115",
" . c #DFB31D",
".. c #E3B90E",
"X. c #E3BC1C",
"o. c #E4BB16",
"O. c #C08129",
"+. c #CC9524",
"@. c #CD9B2C",
"#. c #D19D2C",
"$. c #C18A34",
"%. c #CA9434",
"&. c #C3923C",
"*. c #DAAC26",
"=. c #D7A82C",
"-. c #DDB125",
";. c #D3A235",
":. c #D3A63C",
">. c #DCB439",
",. c #E2BB2B",
"<. c #E2BB27",
"1. c #E2BC39",
"2. c #E9C61C",
"3. c #E9C61B",
"4. c #EDCF22",
"5. c #E6C025",
"6. c #EFD324",
"7. c #F1D523",
"8. c #F4DD2A",
"9. c #F3DB24",
"0. c #E5C43C",
"q. c #E7C93A",
"w. c #F3DD3D",
"e. c #F6E43F",
"r. c #B68648",
"t. c #C5934C",
"y. c #D5A844",
"u. c #DDB847",
"i. c #D2A55C",
"p. c #E0BD48",
"a. c #CCA663",
"s. c #E5C548",
"d. c #ECD143",
"f. c #F1DC4A",
"g. c #E9CF55",
"h. c #E5C95B",
"j. c #E4C457",
"k. c #EFD95D",
"l. c #EDD556",
"z. c #F1DC5B",
"x. c #F1DB51",
"c. c #F4E14D",
"v. c #F5E253",
"b. c #F9EB5C",
"n. c #F7E957",
"m. c #DFC37C",
"M. c #E6CB60",
"N. c #EDDA65",
"B. c #F1DE68",
"V. c #E6CD70",
"C. c #EDD97D",
"Z. c #F5E563",
"A. c #F9ED63",
"S. c #F3E36A",
"D. c #F9EE6E",
"F. c #F4E673",
"G. c #F9EF74",
"H. c #F7EC7D",
"J. c #F5E876",
"K. c #F9F07B",
"L. c #DFC18E",
"P. c #E9D788",
"I. c #E3CB96",
"U. c #F5E988",
"Y. c #FAF284",
"T. c #F9F28C",
"R. c #EFE49D",
"E. c #F6EC91",
"W. c #F2E69C",
"Q. c #F7EF9D",
"!. c #FAF394",
"~. c #FAF39C",
"^. c #E9D7A4",
"/. c #EDDBB4",
"(. c #F3EAAD",
"). c #F9F3A3",
"_. c #FCF7AB",
"`. c #F2E9BA",
"'. c #FBF7BC",
"]. c #EFE6C4",
"[. c #F2E9C6",
"{. c #F7F4C5",
"}. c #F3F0D5",
"|. c #F2EFE4",
" X c #F3F2EC",
".X c #F3F3F0",
/* pixels */
"                                                                                ",
"                                                                                ",
"                                                                                ",
"                                                                                ",
"                                                                                ",
"                                                                                ",
"                                                                                ",
"                                                                                ",
"                                                                                ",
"                 X}.[.[.].                                                      ",
"               X{.H.z.0.1.&.r.>.$.C @.1.s.  n V N $.%.=.w.b.                    ",
"             X}.G.b.w..._ J G u.:.Q J U / [ $.D B x z / c.A.A.                  ",
"          |.`.).G.K.b.2._ _ p.C.=.d y y l Z ~ y.B y Z <.A.Y.D.T.                ",
"         X^.B.~.T.~.T.k.<...| -.R e * & > e z U *.( ,.x.Y.T.T.~.J.g.            ",
"        (.x.b._.).).!.n.3.` K K Y +.b : M A L ] k.k.H.~.!.!.!._.Y.c.S.          ",
"        Z.e.S.'.'.!.S.N.q._ H d J *.V.^.P.;.R >.P.W.E.~.~.~._.{.U.v.v.          ",
"      U.q.*.y.L.R.h.r.n v 3 , - 1 m a./.I.t.N M S r.u.k.Z.Z.U.I.i.=.<.z.        ",
"        h.~ f j G / 1 + X . o O . + 9 N x e > * # u 3.6.4.3.[ j l J *.          ",
"          j.! w - u y 6 $ + < < = - = = k y t 7 = T X.] ! d 1 1 Q =.            ",
"              A 7 ; y w < @ 4 d p r ; = l k y e = w t r 6 - - l =.              ",
"              #.p - 7 Z s * 4 L H k e = d l y e $ # ; 8 ; = t ~                 ",
"                +.0 ; q L q - L I d e = d Z y 7 o # > 6 6 2 A                   ",
"                    0 < i g - h I Z e 7 Z J y ; o = 7 t 7 z                     ",
"                      u - s q q L a t k I Y k & @ 6 t y z ]                     ",
"                      { q , w 1 g p l P 3.` p @ * r l W *.                      ",
"                        ! < , 4 g H ( 6.7.` q @ 7 k ;.d.                        ",
"                          x * - G | 2.8.9._ , 2 l %.N.                          ",
"                            4 @ 9 5.` 3.6.T V E W j.                            ",
"                            x 5 % F ) o.6.+.y.] *.                              ",
"                              B 5 9  .6.8.d.0.} ,.                              ",
"                                G C h.b.c.c.5. .                                ",
"                                  r.m.Y.n.f.,.                                  ",
"                                    V.).G.d.                                    ",
"                                        F.g.                                    ",
"                                        (.                                      ",
"                                        |.                                      ",
"                                                                                ",
"                                                                                ",
"                                                                                ",
"                                                                                "
};
