/* XPM */
static char *_14e18bf43a04f61953c903a16505c98eaKgZMsBj1G4Ve0q[] = {
/* columns rows colors chars-per-pixel */
"50 50 110 2 ",
"   c None",
".  c #140A1C",
"X  c #1A0E1E",
"o  c #17121F",
"O  c #1C171F",
"+  c #1C2F15",
"@  c #1A251C",
"#  c #192C1B",
"$  c #133D14",
"%  c #2F2C13",
"&  c #343C1A",
"*  c #170F20",
"=  c #1A0F20",
"-  c #1C1121",
";  c #1E1A23",
":  c #220F20",
">  c #221121",
",  c #2B1121",
"<  c #211925",
"1  c #221C29",
"2  c #341221",
"3  c #3B1321",
"4  c #232525",
"5  c #25212C",
"6  c #29252C",
"7  c #2E3A2A",
"8  c #292730",
"9  c #2B2932",
"0  c #302B33",
"q  c #382E3D",
"w  c #303137",
"e  c #34363A",
"r  c #363A3D",
"t  c #3A3D3F",
"y  c #44111F",
"u  c #5C181C",
"i  c #61131F",
"p  c #4E221D",
"a  c #441422",
"s  c #4B1522",
"d  c #531522",
"f  c #5B1622",
"g  c #5E1D20",
"h  c #651723",
"j  c #691723",
"k  c #651A24",
"l  c #6C1823",
"z  c #661F28",
"x  c #701823",
"c  c #5B2022",
"v  c #5D242C",
"b  c #56292F",
"n  c #542B31",
"m  c #4B3237",
"M  c #4A3539",
"N  c #433A3C",
"B  c #632229",
"V  c #74252F",
"C  c #0E4F16",
"Z  c #114C15",
"A  c #1E431B",
"S  c #175515",
"D  c #1B5615",
"F  c #145D15",
"G  c #175F1A",
"H  c #156518",
"J  c #196719",
"K  c #1C691A",
"L  c #3A7A13",
"P  c #274429",
"I  c #374633",
"U  c #405739",
"Y  c #446F34",
"T  c #467036",
"R  c #373E40",
"E  c #3A3F40",
"W  c #433A4F",
"Q  c #3A4142",
"!  c #554956",
"~  c #5A525E",
"^  c #537846",
"/  c #5F5F65",
"(  c #695963",
")  c #6E5E69",
"_  c #915C65",
"`  c #906166",
"'  c #986269",
"]  c #9D767E",
"[  c #3C8734",
"{  c #478C14",
"}  c #548A11",
"|  c #67960F",
" . c #69A713",
".. c #539444",
"X. c #5B9B42",
"o. c #73B55B",
"O. c #81BA13",
"+. c #7F7982",
"@. c #877A84",
"#. c #8A7C85",
"$. c #937A83",
"%. c #B1ACA8",
"&. c #C5BBBD",
"*. c #CFBBBE",
"=. c #DED7D5",
"-. c #E6DEDF",
";. c #E8E0E1",
":. c #EBE6E6",
">. c #EDE7E7",
",. c #EEE9E9",
/* pixels */
"                                                                                                    ",
"                                                                                                    ",
"                                                                                                    ",
"                                            B z z z z z z B                                         ",
"                                        m k x l x l d d d d l m                                     ",
"                                      n l l l l l k a a = = a l n                                   ",
"                                      j x l l l l j x l d > - 2 j v                                 ",
"                                      , l l l x l , f l l d - e B l Q                               ",
"                                    k : s j x j s = > j a = - E t k t                               ",
"                                    k = = 2 3 2 = = = j s = - 5 t z N                               ",
"                                    j = . . * . . = = l l f = = r N                                 ",
"                                    d : ~ ~ < ~ ~ - = d x l 2 = - E                                 ",
"                                    = < +.+.1 +.+.- = = a l j - - 8 R                               ",
"                                  k = = . . * . . = = = = j j = * - R                               ",
"                                  j , = * = = = = = = = , j l > * - E                               ",
"                                z x l = = = * * = * = 3 k l s = = - E                               ",
"                                3 j l s = = = = = = s l l j = = = s b E                             ",
"                            l f = j l l f = = = : f l x j , = : f x l B E                           ",
"                          l l l 2 : d x j - , : j l l l > * 2 j l l l l M                           ",
"                        l l x x j a = a j : j a a l l a = 3 j s l l x l l E                         ",
"                        l l 3 j l x d s 3 : j k = h 3 = d x k : j l l x l v E                       ",
"                      l l l f , j l x x f = j j 2 f h h l l k : , f f f k l M Q                     ",
"                    l l l x l : j l l l l 3 l l h a l x l l d = = 3 3 3 3 s z t                     ",
"                  l x l l l 3 : j a l l l x l x l l l l l 3 = = = 3 a k l s l E                     ",
"                  k x h 2 2 : = h > k l l k x l l l x h 2 X > f f d : 2 j l l Q                     ",
"                2 l j > , s s 2 k 2 > j j , j l l l d 3 h j j l l x j = j l l E                     ",
"                s k l a j = = s i s > j j > j l l y X a y s s l l l j a j l s E                     ",
"                  3 j l 3 = X < 2 o > j i > l x V @.$.#.@.W - j x l l l j 3 - R                     ",
"                  - j f = X q $., , f , 2 h l B *.>.>.;.%./ > k l l l h , * - R                     ",
"                    j : - ! ] V d k k > h d s A &.-.;.-.P X.< j l x l : * * - R                     ",
"                      = < _ l a a l j > h X X Z ` ' ) ( < X.< j j k a = = * = 8 E                   ",
"                      = s i 3 d x h h > j X X p % u o O T 7 > j h 2 * * = = - w Q                   ",
"                        : > h x f 2 : = f , : j u + $ T 4 = h j > = = = * = - Q                     ",
"                          - j s = s 3 = X h > h j # S I - - h s = = = = - * - r                     ",
"                          - 2 s s = h O = h = k & H J [ ^ - 2 - = * * = - * - E                     ",
"                            - j l , h - , , : h S  .} K o.; * * * X = * * * - r                     ",
"                            > k f j j 3 s = o k S O.| K o.- - * = 1 * * = - 1 E                     ",
"                            - a = a j l a X O h S { L J o.< * * 9 r - - * - E                       ",
"                              - - = j l l X > h @ C H ..I - * - 5 R w * * - R                       ",
"                                e > f l j : = h X O g 6 X X - e - r E - * - R                       ",
"                                E - = s j - : h = = j - 5 5 - R 8 E   5 - - E                       ",
"                                  - 9 - j = : k 0 0 k > E E - R Q     R - 9 E                       ",
"                                    R - : = = k W t k -   R ; E     r ; ; R                         ",
"                                      1 1 = X d j m v 2 w   E     w - 1 R                           ",
"                                        E 8 8 9 b n I n a E       8 8                               ",
"                                                Q Q   E M                                           ",
"                                                                                                    ",
"                                                                                                    ",
"                                                                                                    ",
"                                                                                                    "
};
